<svg width="209" height="24" viewBox="0 0 209 24" fill="none" xmlns="http://www.w3.org/2000/svg">
<path d="M13.6116 0.358093L21.2102 16.7102L22 4.23767L13.6116 0.358093Z" fill="url(#paint0_linear_0_1)"/>
<path d="M15.5718 17.5409H6.4282L5.26087 20.3695L11 23.6419L16.7391 20.3695L15.5718 17.5409Z" fill="url(#paint1_linear_0_1)"/>
<path d="M7.99514 13.8721H14.008L11 6.5629L7.99514 13.8721Z" fill="url(#paint2_linear_0_1)"/>
<path d="M8.38844 0.358093L0 4.23767L0.78976 16.7102L8.38844 0.358093Z" fill="url(#paint3_linear_0_1)"/>
<path d="M33.62 19L39.34 5H41.76L47.46 19H44.42L43.46 16.34H37.62L36.66 19H33.62ZM38.54 13.92H42.54L41.04 10.1C40.84 9.58 40.66 9.04 40.54 8.5C40.4 9.04 40.24 9.6 40.04 10.1L38.54 13.92ZM48.7859 19V8.6H51.4459V10.12C51.9859 8.96 53.0259 8.36 54.6259 8.36C56.8659 8.36 58.5859 10.02 58.5859 12.64V19H55.8859V13.3C55.8859 11.5 54.9859 10.72 53.6459 10.72C52.5059 10.72 51.4859 11.5 51.4859 13.3V19H48.7859ZM66.0545 23.26C63.9545 23.26 62.3145 22.76 61.0745 21.3L62.7545 19.32C63.7345 20.44 64.7745 20.76 66.0745 20.76C67.5145 20.76 68.7745 19.58 68.7745 17.92V17.46C68.2145 18.42 67.3145 19.06 65.6345 19.06C62.7745 19.06 60.5945 16.7 60.5945 13.7C60.5945 10.7 62.7745 8.34 65.6345 8.34C67.3545 8.34 68.2745 9 68.8145 10.02V8.6H71.4745V18.08C71.4745 21.28 69.2345 23.26 66.0545 23.26ZM63.2945 13.7C63.2945 15.28 64.3145 16.6 66.0745 16.6C67.8545 16.6 68.8945 15.32 68.8945 13.7C68.8945 12.08 67.8545 10.8 66.0745 10.8C64.3145 10.8 63.2945 12.08 63.2945 13.7ZM77.8248 19.24C75.5848 19.24 73.8648 17.58 73.8648 14.96V8.6H76.5648V14.3C76.5648 16.1 77.3048 16.88 78.6448 16.88C79.7848 16.88 80.8048 16.1 80.8048 14.3V8.6H83.5048V19H80.8848V17.44C80.3848 18.64 79.4448 19.24 77.8248 19.24ZM85.9977 19V4.4H88.6977V19H85.9977ZM95.9345 19.26C93.0745 19.26 90.7945 16.84 90.7945 13.84C90.7945 10.84 93.0745 8.38 95.9345 8.38C97.7345 8.38 98.6745 9.12 99.2345 10.24V8.6H101.915V19H99.2945V17.3C98.7345 18.48 97.7945 19.26 95.9345 19.26ZM93.4945 13.82C93.4945 15.4 94.6545 16.82 96.3745 16.82C98.1545 16.82 99.2945 15.46 99.2945 13.84C99.2945 12.22 98.1545 10.82 96.3745 10.82C94.6545 10.82 93.4945 12.2 93.4945 13.82ZM104.419 19V8.6H107.039V10.58C107.399 9.08 108.459 8.26 110.259 8.36V10.9H109.879C108.319 10.9 107.119 11.94 107.119 13.68V19H104.419ZM116.438 19V5H121.158C124.298 5 126.218 6.48 126.218 9.42C126.218 12.38 124.298 13.92 121.158 13.92H119.238V19H116.438ZM119.238 11.4H120.998C122.518 11.4 123.378 10.78 123.378 9.44C123.378 8.12 122.518 7.5 120.998 7.5H119.238V11.4ZM128.115 19V8.6H130.735V10.58C131.095 9.08 132.155 8.26 133.955 8.36V10.9H133.575C132.015 10.9 130.815 11.94 130.815 13.68V19H128.115ZM135.753 19V8.6H138.453V19H135.753ZM135.473 6.14C135.473 5.28 136.173 4.56 137.093 4.56C138.033 4.56 138.713 5.28 138.713 6.14C138.713 7.04 138.033 7.74 137.093 7.74C136.173 7.74 135.473 7.02 135.473 6.14ZM140.95 19V8.6H143.61V10.12C144.15 8.96 145.19 8.36 146.79 8.36C148.25 8.36 149.49 9.06 150.17 10.32C150.87 9.06 151.87 8.36 153.69 8.36C155.93 8.36 157.65 10.02 157.65 12.64V19H154.95V13.3C154.95 11.5 154.09 10.72 152.87 10.72C151.61 10.72 150.75 11.3 150.75 13.3V19H148.05V13.3C148.05 11.5 147.15 10.72 145.81 10.72C144.67 10.72 143.65 11.5 143.65 13.3V19H140.95ZM160.053 19V8.6H162.753V19H160.053ZM159.773 6.14C159.773 5.28 160.473 4.56 161.393 4.56C162.333 4.56 163.013 5.28 163.013 6.14C163.013 7.04 162.333 7.74 161.393 7.74C160.473 7.74 159.773 7.02 159.773 6.14ZM169.19 19C167.13 19 166.01 18.04 166.01 15.78V10.9H164.55V8.6H166.01V6.5L168.71 6.22V8.6H170.91V10.9H168.71V15.64C168.71 16.3 169.03 16.6 169.55 16.6H170.67V19H169.19ZM172.713 19V8.6H175.413V19H172.713ZM172.433 6.14C172.433 5.28 173.133 4.56 174.053 4.56C174.993 4.56 175.673 5.28 175.673 6.14C175.673 7.04 174.993 7.74 174.053 7.74C173.133 7.74 172.433 7.02 172.433 6.14ZM181.149 19L176.809 8.6H180.009L182.089 14.54C182.269 15.04 182.429 15.66 182.529 16.2C182.629 15.66 182.789 15.04 182.969 14.54L185.049 8.6H188.189L183.869 19H181.149ZM193.907 19.26C190.687 19.26 188.527 16.82 188.527 13.82C188.527 10.82 190.787 8.34 193.907 8.34C197.027 8.34 199.187 10.82 199.187 13.82C199.187 14.12 199.167 14.44 199.107 14.78H191.327C191.627 16 192.547 16.86 193.907 16.86C195.067 16.86 195.967 16.26 196.447 15.46L198.547 17.04C197.707 18.34 195.967 19.26 193.907 19.26ZM191.327 12.76H196.467C196.167 11.6 195.187 10.66 193.867 10.66C192.587 10.66 191.627 11.52 191.327 12.76ZM204.539 19.26C202.779 19.26 201.359 18.66 200.219 17.44L202.039 15.78C202.799 16.64 203.599 17.06 204.479 17.06C205.399 17.06 205.919 16.6 205.919 15.98C205.919 15.44 205.659 15.14 204.019 14.76C201.239 14.1 200.819 12.84 200.819 11.52C200.819 9.7 202.259 8.34 204.699 8.34C206.379 8.34 207.499 8.76 208.559 10.14L206.599 11.64C206.099 10.84 205.459 10.52 204.759 10.52C204.019 10.52 203.459 10.8 203.459 11.44C203.459 11.8 203.619 12.12 204.859 12.44C207.879 13.22 208.579 14.34 208.579 15.9C208.579 17.82 206.839 19.26 204.539 19.26Z" fill="white"/>
<defs>
<linearGradient id="paint0_linear_0_1" x1="52.1908" y1="-6.4529" x2="130.546" y2="36.7907" gradientUnits="userSpaceOnUse">
<stop stop-color="#F4184F"/>
<stop offset="0.484375" stop-color="#F73BF3"/>
<stop offset="1" stop-color="#D045FF"/>
</linearGradient>
<linearGradient id="paint1_linear_0_1" x1="52.1908" y1="-6.4529" x2="130.546" y2="36.7907" gradientUnits="userSpaceOnUse">
<stop stop-color="#F4184F"/>
<stop offset="0.484375" stop-color="#F73BF3"/>
<stop offset="1" stop-color="#D045FF"/>
</linearGradient>
<linearGradient id="paint2_linear_0_1" x1="52.1908" y1="-6.4529" x2="130.546" y2="36.7907" gradientUnits="userSpaceOnUse">
<stop stop-color="#F4184F"/>
<stop offset="0.484375" stop-color="#F73BF3"/>
<stop offset="1" stop-color="#D045FF"/>
</linearGradient>
<linearGradient id="paint3_linear_0_1" x1="52.1908" y1="-6.4529" x2="130.546" y2="36.7907" gradientUnits="userSpaceOnUse">
<stop stop-color="#F4184F"/>
<stop offset="0.484375" stop-color="#F73BF3"/>
<stop offset="1" stop-color="#D045FF"/>
</linearGradient>
</defs>
</svg>
