<svg width="169" height="32" viewBox="0 0 169 32" fill="none" xmlns="http://www.w3.org/2000/svg">
<path d="M14.8491 4L23.1385 20.8551L24.0001 7.99892L14.8491 4Z" fill="white"/>
<path d="M14.8491 4L23.1385 20.8551L24.0001 7.99892L14.8491 4Z" fill="url(#paint0_linear_1583_2775)"/>
<path d="M16.9875 21.7114H7.01272L5.73926 24.627L12.0001 28L18.261 24.627L16.9875 21.7114Z" fill="white"/>
<path d="M16.9875 21.7114H7.01272L5.73926 24.627L12.0001 28L18.261 24.627L16.9875 21.7114Z" fill="url(#paint1_linear_1583_2775)"/>
<path d="M8.72217 17.9298H15.2817L12.0002 10.3958L8.72217 17.9298Z" fill="white"/>
<path d="M8.72217 17.9298H15.2817L12.0002 10.3958L8.72217 17.9298Z" fill="url(#paint2_linear_1583_2775)"/>
<path d="M9.15103 4L0 7.99892L0.861556 20.8551L9.15103 4Z" fill="white"/>
<path d="M9.15103 4L0 7.99892L0.861556 20.8551L9.15103 4Z" fill="url(#paint3_linear_1583_2775)"/>
<path d="M32.1758 22.4999L36.2878 10.5799H39.1038L43.2158 22.4999H40.8478L39.9998 19.9399H35.3918L34.5278 22.4999H32.1758ZM36.0158 18.0199H39.3758L37.3918 12.0839H37.9998L36.0158 18.0199ZM44.2064 22.4999V13.7959H46.1744V15.5079L46.0144 15.2039C46.2171 14.6812 46.5478 14.2866 47.0064 14.0199C47.4758 13.7426 48.0198 13.6039 48.6384 13.6039C49.2784 13.6039 49.8438 13.7426 50.3344 14.0199C50.8358 14.2972 51.2251 14.6866 51.5024 15.1879C51.7798 15.6786 51.9184 16.2492 51.9184 16.8999V22.4999H49.8224V17.3959C49.8224 17.0119 49.7478 16.6812 49.5984 16.4039C49.4491 16.1266 49.2411 15.9132 48.9744 15.7639C48.7184 15.6039 48.4144 15.5239 48.0624 15.5239C47.7211 15.5239 47.4171 15.6039 47.1504 15.7639C46.8838 15.9132 46.6758 16.1266 46.5264 16.4039C46.3771 16.6812 46.3024 17.0119 46.3024 17.3959V22.4999H44.2064ZM57.7548 26.0199C57.1041 26.0199 56.5015 25.9132 55.9468 25.6999C55.3921 25.4866 54.9121 25.1879 54.5068 24.8039C54.1121 24.4306 53.8241 23.9879 53.6428 23.4759L55.5948 22.7399C55.7228 23.1452 55.9735 23.4706 56.3468 23.7159C56.7308 23.9719 57.2001 24.0999 57.7548 24.0999C58.1815 24.0999 58.5548 24.0199 58.8748 23.8599C59.2055 23.6999 59.4615 23.4652 59.6428 23.1559C59.8241 22.8572 59.9148 22.4946 59.9148 22.0679V20.0839L60.3148 20.5639C60.0161 21.0866 59.6161 21.4812 59.1148 21.7479C58.6135 22.0146 58.0428 22.1479 57.4028 22.1479C56.5921 22.1479 55.8668 21.9612 55.2268 21.5879C54.5868 21.2146 54.0855 20.7026 53.7228 20.0519C53.3601 19.4012 53.1788 18.6706 53.1788 17.8599C53.1788 17.0386 53.3601 16.3079 53.7228 15.6679C54.0855 15.0279 54.5815 14.5266 55.2108 14.1639C55.8401 13.7906 56.5548 13.6039 57.3548 13.6039C58.0055 13.6039 58.5761 13.7426 59.0668 14.0199C59.5681 14.2866 59.9841 14.6759 60.3148 15.1879L60.0268 15.7159V13.7959H62.0108V22.0679C62.0108 22.8252 61.8241 23.5026 61.4508 24.0999C61.0881 24.6972 60.5868 25.1666 59.9468 25.5079C59.3175 25.8492 58.5868 26.0199 57.7548 26.0199ZM57.6588 20.2119C58.1068 20.2119 58.4961 20.1159 58.8268 19.9239C59.1681 19.7212 59.4348 19.4439 59.6268 19.0919C59.8188 18.7399 59.9148 18.3346 59.9148 17.8759C59.9148 17.4279 59.8135 17.0279 59.6108 16.6759C59.4188 16.3132 59.1521 16.0306 58.8108 15.8279C58.4801 15.6252 58.0961 15.5239 57.6588 15.5239C57.2215 15.5239 56.8268 15.6252 56.4748 15.8279C56.1228 16.0306 55.8455 16.3132 55.6428 16.6759C55.4508 17.0279 55.3548 17.4279 55.3548 17.8759C55.3548 18.3239 55.4508 18.7239 55.6428 19.0759C55.8455 19.4279 56.1175 19.7052 56.4588 19.9079C56.8108 20.1106 57.2108 20.2119 57.6588 20.2119ZM66.9123 22.6919C66.2403 22.6919 65.6536 22.5426 65.1523 22.2439C64.6616 21.9452 64.283 21.5292 64.0163 20.9959C63.7603 20.4626 63.6323 19.8386 63.6323 19.1239V13.7959H65.7283V18.9479C65.7283 19.3106 65.7976 19.6306 65.9363 19.9079C66.0856 20.1746 66.2936 20.3879 66.5603 20.5479C66.8376 20.6972 67.147 20.7719 67.4883 20.7719C67.8296 20.7719 68.1336 20.6972 68.4003 20.5479C68.667 20.3879 68.875 20.1692 69.0243 19.8919C69.1736 19.6146 69.2483 19.2839 69.2483 18.8999V13.7959H71.3443V22.4999H69.3603V20.7879L69.5363 21.0919C69.3336 21.6252 68.9976 22.0252 68.5283 22.2919C68.0696 22.5586 67.531 22.6919 66.9123 22.6919ZM73.1327 22.4999V10.3879H75.2287V22.4999H73.1327ZM79.6439 22.6919C79.0359 22.6919 78.5079 22.5906 78.0599 22.3879C77.6119 22.1852 77.2653 21.8972 77.0199 21.5239C76.7746 21.1399 76.6519 20.6972 76.6519 20.1959C76.6519 19.7159 76.7586 19.2892 76.9719 18.9159C77.1853 18.5319 77.5159 18.2119 77.9639 17.9559C78.4119 17.6999 78.9773 17.5186 79.6599 17.4119L82.5079 16.9479V18.5479L80.0599 18.9639C79.6439 19.0386 79.3346 19.1719 79.1319 19.3639C78.9293 19.5559 78.8279 19.8066 78.8279 20.1159C78.8279 20.4146 78.9399 20.6546 79.1639 20.8359C79.3986 21.0066 79.6866 21.0919 80.0279 21.0919C80.4653 21.0919 80.8493 21.0012 81.1799 20.8199C81.5213 20.6279 81.7826 20.3666 81.9639 20.0359C82.1559 19.7052 82.2519 19.3426 82.2519 18.9479V16.7079C82.2519 16.3346 82.1026 16.0252 81.8039 15.7799C81.5159 15.5239 81.1319 15.3959 80.6519 15.3959C80.2039 15.3959 79.8039 15.5186 79.4519 15.7639C79.1106 15.9986 78.8599 16.3132 78.6999 16.7079L76.9879 15.8759C77.1586 15.4172 77.4253 15.0226 77.7879 14.6919C78.1613 14.3506 78.5986 14.0839 79.0999 13.8919C79.6013 13.6999 80.1453 13.6039 80.7319 13.6039C81.4466 13.6039 82.0759 13.7372 82.6199 14.0039C83.1639 14.2599 83.5853 14.6226 83.8839 15.0919C84.1933 15.5506 84.3479 16.0892 84.3479 16.7079V22.4999H82.3639V21.0119L82.8119 20.9799C82.5879 21.3532 82.3213 21.6679 82.0119 21.9239C81.7026 22.1692 81.3506 22.3612 80.9559 22.4999C80.5613 22.6279 80.1239 22.6919 79.6439 22.6919ZM86.1252 22.4999V13.7959H88.0932V15.7319L87.9332 15.4439C88.1358 14.7932 88.4505 14.3399 88.8772 14.0839C89.3145 13.8279 89.8372 13.6999 90.4452 13.6999H90.9572V15.5559H90.2052C89.6078 15.5559 89.1278 15.7426 88.7652 16.1159C88.4025 16.4786 88.2212 16.9906 88.2212 17.6519V22.4999H86.1252ZM94.8093 22.4999V10.5799H99.2573C100.068 10.5799 100.783 10.7292 101.402 11.0279C102.031 11.3159 102.522 11.7426 102.874 12.3079C103.226 12.8626 103.402 13.5399 103.402 14.3399C103.402 15.1292 103.22 15.8066 102.858 16.3719C102.506 16.9266 102.02 17.3532 101.402 17.6519C100.783 17.9506 100.068 18.0999 99.2573 18.0999H96.9853V22.4999H94.8093ZM96.9853 16.1799H99.2893C99.684 16.1799 100.026 16.1052 100.314 15.9559C100.602 15.7959 100.826 15.5772 100.986 15.2999C101.146 15.0226 101.226 14.7026 101.226 14.3399C101.226 13.9666 101.146 13.6466 100.986 13.3799C100.826 13.1026 100.602 12.8892 100.314 12.7399C100.026 12.5799 99.684 12.4999 99.2893 12.4999H96.9853V16.1799ZM104.848 22.4999V13.7959H106.816V15.7319L106.656 15.4439C106.859 14.7932 107.174 14.3399 107.6 14.0839C108.038 13.8279 108.56 13.6999 109.168 13.6999H109.68V15.5559H108.928C108.331 15.5559 107.851 15.7426 107.488 16.1159C107.126 16.4786 106.944 16.9906 106.944 17.6519V22.4999H104.848ZM110.673 22.4999V13.7959H112.769V22.4999H110.673ZM110.673 12.8199V10.5799H112.769V12.8199H110.673ZM114.544 22.4999V13.7959H116.512V15.8119L116.288 15.4759C116.448 14.8466 116.768 14.3772 117.248 14.0679C117.728 13.7586 118.293 13.6039 118.944 13.6039C119.659 13.6039 120.288 13.7906 120.832 14.1639C121.376 14.5372 121.728 15.0279 121.888 15.6359L121.296 15.6839C121.563 14.9906 121.963 14.4732 122.496 14.1319C123.029 13.7799 123.643 13.6039 124.336 13.6039C124.955 13.6039 125.504 13.7426 125.984 14.0199C126.475 14.2972 126.859 14.6866 127.136 15.1879C127.413 15.6786 127.552 16.2492 127.552 16.8999V22.4999H125.456V17.3959C125.456 17.0119 125.387 16.6812 125.248 16.4039C125.109 16.1266 124.917 15.9132 124.672 15.7639C124.427 15.6039 124.128 15.5239 123.776 15.5239C123.445 15.5239 123.152 15.6039 122.896 15.7639C122.64 15.9132 122.443 16.1266 122.304 16.4039C122.165 16.6812 122.096 17.0119 122.096 17.3959V22.4999H120V17.3959C120 17.0119 119.931 16.6812 119.792 16.4039C119.653 16.1266 119.456 15.9132 119.2 15.7639C118.955 15.6039 118.661 15.5239 118.32 15.5239C117.989 15.5239 117.696 15.6039 117.44 15.7639C117.184 15.9132 116.987 16.1266 116.848 16.4039C116.709 16.6812 116.64 17.0119 116.64 17.3959V22.4999H114.544ZM129.165 22.4999V13.7959H131.261V22.4999H129.165ZM129.165 12.8199V10.5799H131.261V12.8199H129.165ZM137.005 22.5959C136.023 22.5959 135.261 22.3292 134.717 21.7959C134.183 21.2519 133.917 20.4892 133.917 19.5079V15.6679H132.413V13.7959H132.573C132.999 13.7959 133.33 13.6839 133.565 13.4599C133.799 13.2359 133.917 12.9106 133.917 12.4839V11.8119H136.013V13.7959H138.013V15.6679H136.013V19.3959C136.013 19.6839 136.061 19.9292 136.157 20.1319C136.263 20.3346 136.423 20.4892 136.637 20.5959C136.861 20.7026 137.143 20.7559 137.485 20.7559C137.559 20.7559 137.645 20.7506 137.741 20.7399C137.847 20.7292 137.949 20.7186 138.045 20.7079V22.4999C137.895 22.5212 137.725 22.5426 137.533 22.5639C137.341 22.5852 137.165 22.5959 137.005 22.5959ZM139.486 22.4999V13.7959H141.582V22.4999H139.486ZM139.486 12.8199V10.5799H141.582V12.8199H139.486ZM145.981 22.4999L142.557 13.7959H144.845L147.325 20.6439H146.477L148.973 13.7959H151.261L147.837 22.4999H145.981ZM156.232 22.6919C155.336 22.6919 154.552 22.4892 153.88 22.0839C153.208 21.6786 152.685 21.1292 152.312 20.4359C151.938 19.7426 151.752 18.9746 151.752 18.1319C151.752 17.2572 151.938 16.4839 152.312 15.8119C152.696 15.1292 153.213 14.5906 153.864 14.1959C154.525 13.8012 155.261 13.6039 156.072 13.6039C156.754 13.6039 157.352 13.7159 157.864 13.9399C158.386 14.1639 158.829 14.4732 159.192 14.8679C159.554 15.2626 159.832 15.7159 160.024 16.2279C160.216 16.7292 160.312 17.2732 160.312 17.8599C160.312 18.0092 160.301 18.1639 160.28 18.3239C160.269 18.4839 160.242 18.6226 160.2 18.7399H153.48V17.1399H159.016L158.024 17.8919C158.12 17.4012 158.093 16.9639 157.944 16.5799C157.805 16.1959 157.57 15.8919 157.24 15.6679C156.92 15.4439 156.53 15.3319 156.072 15.3319C155.634 15.3319 155.245 15.4439 154.904 15.6679C154.562 15.8812 154.301 16.2012 154.12 16.6279C153.949 17.0439 153.885 17.5506 153.928 18.1479C153.885 18.6812 153.954 19.1559 154.136 19.5719C154.328 19.9772 154.605 20.2919 154.968 20.5159C155.341 20.7399 155.768 20.8519 156.248 20.8519C156.728 20.8519 157.133 20.7506 157.464 20.5479C157.805 20.3452 158.072 20.0732 158.264 19.7319L159.96 20.5639C159.789 20.9799 159.522 21.3479 159.16 21.6679C158.797 21.9879 158.365 22.2386 157.864 22.4199C157.373 22.6012 156.829 22.6919 156.232 22.6919ZM165.052 22.6919C164.124 22.6919 163.314 22.4732 162.62 22.0359C161.938 21.5879 161.468 20.9852 161.212 20.2279L162.78 19.4759C163.004 19.9666 163.314 20.3506 163.708 20.6279C164.114 20.9052 164.562 21.0439 165.052 21.0439C165.436 21.0439 165.74 20.9586 165.964 20.7879C166.188 20.6172 166.3 20.3932 166.3 20.1159C166.3 19.9452 166.252 19.8066 166.156 19.6999C166.071 19.5826 165.948 19.4866 165.788 19.4119C165.639 19.3266 165.474 19.2572 165.292 19.2039L163.868 18.8039C163.132 18.5906 162.572 18.2652 162.188 17.8279C161.815 17.3906 161.628 16.8732 161.628 16.2759C161.628 15.7426 161.762 15.2786 162.028 14.8839C162.306 14.4786 162.684 14.1639 163.164 13.9399C163.655 13.7159 164.215 13.6039 164.844 13.6039C165.666 13.6039 166.391 13.8012 167.02 14.1959C167.65 14.5906 168.098 15.1452 168.364 15.8599L166.764 16.6119C166.615 16.2172 166.364 15.9026 166.012 15.6679C165.66 15.4332 165.266 15.3159 164.828 15.3159C164.476 15.3159 164.199 15.3959 163.996 15.5559C163.794 15.7159 163.692 15.9239 163.692 16.1799C163.692 16.3399 163.735 16.4786 163.82 16.5959C163.906 16.7132 164.023 16.8092 164.172 16.8839C164.332 16.9586 164.514 17.0279 164.716 17.0919L166.108 17.5079C166.823 17.7212 167.372 18.0412 167.756 18.4679C168.151 18.8946 168.348 19.4172 168.348 20.0359C168.348 20.5586 168.21 21.0226 167.932 21.4279C167.655 21.8226 167.271 22.1319 166.78 22.3559C166.29 22.5799 165.714 22.6919 165.052 22.6919Z" fill="white"/>
<defs>
<linearGradient id="paint0_linear_1583_2775" x1="16.5396" y1="6.03233" x2="24.2142" y2="11.0635" gradientUnits="userSpaceOnUse">
<stop stop-color="#E90364"/>
<stop offset="1" stop-color="#FA2C05"/>
</linearGradient>
<linearGradient id="paint1_linear_1583_2775" x1="8.05244" y1="22.4697" x2="10.2668" y2="27.7937" gradientUnits="userSpaceOnUse">
<stop stop-color="#E90364"/>
<stop offset="1" stop-color="#FA2C05"/>
</linearGradient>
<linearGradient id="paint2_linear_1583_2775" x1="9.93393" y1="11.3042" x2="13.6701" y2="15.232" gradientUnits="userSpaceOnUse">
<stop stop-color="#E90364"/>
<stop offset="1" stop-color="#FA2C05"/>
</linearGradient>
<linearGradient id="paint3_linear_1583_2775" x1="1.69049" y1="6.03233" x2="9.36514" y2="11.0635" gradientUnits="userSpaceOnUse">
<stop stop-color="#E90364"/>
<stop offset="1" stop-color="#FA2C05"/>
</linearGradient>
</defs>
</svg>
