<svg width="844" height="93" viewBox="0 0 844 93" fill="none" xmlns="http://www.w3.org/2000/svg">
<path d="M53.5674 0.381805L83.0002 63.7203L86.0595 15.409L53.5674 0.381805Z" fill="url(#paint0_linear_0_1)"/>
<path d="M61.1601 66.9377H25.7433L21.2217 77.8943L43.4517 90.569L65.6817 77.8943L61.1601 66.9377Z" fill="url(#paint1_linear_0_1)"/>
<path d="M31.8125 52.7271H55.1028L43.4515 24.4155L31.8125 52.7271Z" fill="url(#paint2_linear_0_1)"/>
<path d="M33.3356 0.381805L0.84375 15.409L3.90275 63.7203L33.3356 0.381805Z" fill="url(#paint3_linear_0_1)"/>
<path d="M117.648 75L141.386 16.9H151.429L175.084 75H162.468L158.484 63.961H134.248L130.264 75H117.648ZM138.066 53.918H154.666L148.441 38.065C147.611 35.907 146.864 33.666 146.366 31.425C145.785 33.666 145.121 35.99 144.291 38.065L138.066 53.918ZM180.587 75V31.84H191.626V38.148C193.867 33.334 198.183 30.844 204.823 30.844C214.119 30.844 221.257 37.733 221.257 48.606V75H210.052V51.345C210.052 43.875 206.317 40.638 200.756 40.638C196.025 40.638 191.792 43.875 191.792 51.345V75H180.587ZM252.251 92.679C243.536 92.679 236.73 90.604 231.584 84.545L238.556 76.328C242.623 80.976 246.939 82.304 252.334 82.304C258.31 82.304 263.539 77.407 263.539 70.518V68.609C261.215 72.593 257.48 75.249 250.508 75.249C238.639 75.249 229.592 65.455 229.592 53.005C229.592 40.555 238.639 30.761 250.508 30.761C257.646 30.761 261.464 33.5 263.705 37.733V31.84H274.744V71.182C274.744 84.462 265.448 92.679 252.251 92.679ZM240.797 53.005C240.797 59.562 245.03 65.04 252.334 65.04C259.721 65.04 264.037 59.728 264.037 53.005C264.037 46.282 259.721 40.97 252.334 40.97C245.03 40.97 240.797 46.282 240.797 53.005ZM301.098 75.996C291.802 75.996 284.664 69.107 284.664 58.234V31.84H295.869V55.495C295.869 62.965 298.94 66.202 304.501 66.202C309.232 66.202 313.465 62.965 313.465 55.495V31.84H324.67V75H313.797V68.526C311.722 73.506 307.821 75.996 301.098 75.996ZM335.015 75V14.41H346.22V75H335.015ZM376.253 76.079C364.384 76.079 354.922 66.036 354.922 53.586C354.922 41.136 364.384 30.927 376.253 30.927C383.723 30.927 387.624 33.998 389.948 38.646V31.84H401.07V75H390.197V67.945C387.873 72.842 383.972 76.079 376.253 76.079ZM366.127 53.503C366.127 60.06 370.941 65.953 378.079 65.953C385.466 65.953 390.197 60.309 390.197 53.586C390.197 46.863 385.466 41.053 378.079 41.053C370.941 41.053 366.127 46.78 366.127 53.503ZM411.463 75V31.84H422.336V40.057C423.83 33.832 428.229 30.429 435.699 30.844V41.385H434.122C427.648 41.385 422.668 45.701 422.668 52.922V75H411.463ZM461.344 75V16.9H480.932C493.963 16.9 501.931 23.042 501.931 35.243C501.931 47.527 493.963 53.918 480.932 53.918H472.964V75H461.344ZM472.964 43.46H480.268C486.576 43.46 490.145 40.887 490.145 35.326C490.145 29.848 486.576 27.275 480.268 27.275H472.964V43.46ZM509.802 75V31.84H520.675V40.057C522.169 33.832 526.568 30.429 534.038 30.844V41.385H532.461C525.987 41.385 521.007 45.701 521.007 52.922V75H509.802ZM541.501 75V31.84H552.706V75H541.501ZM540.339 21.631C540.339 18.062 543.244 15.074 547.062 15.074C550.963 15.074 553.785 18.062 553.785 21.631C553.785 25.366 550.963 28.271 547.062 28.271C543.244 28.271 540.339 25.283 540.339 21.631ZM563.068 75V31.84H574.107V38.148C576.348 33.334 580.664 30.844 587.304 30.844C593.363 30.844 598.509 33.749 601.331 38.978C604.236 33.749 608.386 30.844 615.939 30.844C625.235 30.844 632.373 37.733 632.373 48.606V75H621.168V51.345C621.168 43.875 617.599 40.638 612.536 40.638C607.307 40.638 603.738 43.045 603.738 51.345V75H592.533V51.345C592.533 43.875 588.798 40.638 583.237 40.638C578.506 40.638 574.273 43.875 574.273 51.345V75H563.068ZM642.346 75V31.84H653.551V75H642.346ZM641.184 21.631C641.184 18.062 644.089 15.074 647.907 15.074C651.808 15.074 654.63 18.062 654.63 21.631C654.63 25.366 651.808 28.271 647.907 28.271C644.089 28.271 641.184 25.283 641.184 21.631ZM680.264 75C671.715 75 667.067 71.016 667.067 61.637V41.385H661.008V31.84H667.067V23.125L678.272 21.963V31.84H687.402V41.385H678.272V61.056C678.272 63.795 679.6 65.04 681.758 65.04H686.406V75H680.264ZM694.882 75V31.84H706.087V75H694.882ZM693.72 21.631C693.72 18.062 696.625 15.074 700.443 15.074C704.344 15.074 707.166 18.062 707.166 21.631C707.166 25.366 704.344 28.271 700.443 28.271C696.625 28.271 693.72 25.283 693.72 21.631ZM729.895 75L711.884 31.84H725.164L733.796 56.491C734.543 58.566 735.207 61.139 735.622 63.38C736.037 61.139 736.701 58.566 737.448 56.491L746.08 31.84H759.111L741.183 75H729.895ZM782.837 76.079C769.474 76.079 760.51 65.953 760.51 53.503C760.51 41.053 769.889 30.761 782.837 30.761C795.785 30.761 804.749 41.053 804.749 53.503C804.749 54.748 804.666 56.076 804.417 57.487H772.13C773.375 62.55 777.193 66.119 782.837 66.119C787.651 66.119 791.386 63.629 793.378 60.309L802.093 66.866C798.607 72.261 791.386 76.079 782.837 76.079ZM772.13 49.104H793.461C792.216 44.29 788.149 40.389 782.671 40.389C777.359 40.389 773.375 43.958 772.13 49.104ZM826.962 76.079C819.658 76.079 813.765 73.589 809.034 68.526L816.587 61.637C819.741 65.206 823.061 66.949 826.713 66.949C830.531 66.949 832.689 65.04 832.689 62.467C832.689 60.226 831.61 58.981 824.804 57.404C813.267 54.665 811.524 49.436 811.524 43.958C811.524 36.405 817.5 30.761 827.626 30.761C834.598 30.761 839.246 32.504 843.645 38.231L835.511 44.456C833.436 41.136 830.78 39.808 827.875 39.808C824.804 39.808 822.48 40.97 822.48 43.626C822.48 45.12 823.144 46.448 828.29 47.776C840.823 51.013 843.728 55.661 843.728 62.135C843.728 70.103 836.507 76.079 826.962 76.079Z" fill="black"/>
<defs>
<linearGradient id="paint0_linear_0_1" x1="130.648" y1="-18.146" x2="269.18" y2="23.3633" gradientUnits="userSpaceOnUse">
<stop stop-color="#F4184F"/>
<stop offset="0.484375" stop-color="#F73BF3"/>
<stop offset="1" stop-color="#D045FF"/>
</linearGradient>
<linearGradient id="paint1_linear_0_1" x1="126.694" y1="60.025" x2="220.27" y2="162.857" gradientUnits="userSpaceOnUse">
<stop stop-color="#F4184F"/>
<stop offset="0.484375" stop-color="#F73BF3"/>
<stop offset="1" stop-color="#D045FF"/>
</linearGradient>
<linearGradient id="paint2_linear_0_1" x1="87.0642" y1="16.1338" x2="174.981" y2="58.3784" gradientUnits="userSpaceOnUse">
<stop stop-color="#F4184F"/>
<stop offset="0.484375" stop-color="#F73BF3"/>
<stop offset="1" stop-color="#D045FF"/>
</linearGradient>
<linearGradient id="paint3_linear_0_1" x1="77.9245" y1="-18.146" x2="216.457" y2="23.3633" gradientUnits="userSpaceOnUse">
<stop stop-color="#F4184F"/>
<stop offset="0.484375" stop-color="#F73BF3"/>
<stop offset="1" stop-color="#D045FF"/>
</linearGradient>
</defs>
</svg>
