<svg width="169" height="32" viewBox="0 0 169 32" fill="none" xmlns="http://www.w3.org/2000/svg">
<path d="M14.849 4L23.1384 20.8551L24 7.99892L14.849 4Z" fill="white"/>
<path d="M16.9874 21.7114H7.01259L5.73913 24.627L12 28L18.2609 24.627L16.9874 21.7114Z" fill="white"/>
<path d="M8.72197 17.9297H15.2815L12 10.3957L8.72197 17.9297Z" fill="white"/>
<path d="M9.15103 4L0 7.99892L0.861556 20.8551L9.15103 4Z" fill="white"/>
<path d="M32.176 22.5L36.288 10.58H39.104L43.216 22.5H40.848L40 19.94H35.392L34.528 22.5H32.176ZM36.016 18.02H39.376L37.392 12.084H38L36.016 18.02ZM44.2066 22.5V13.796H46.1746V15.508L46.0146 15.204C46.2173 14.6813 46.548 14.2867 47.0066 14.02C47.476 13.7427 48.02 13.604 48.6386 13.604C49.2786 13.604 49.844 13.7427 50.3346 14.02C50.836 14.2973 51.2253 14.6867 51.5026 15.188C51.78 15.6787 51.9186 16.2493 51.9186 16.9V22.5H49.8226V17.396C49.8226 17.012 49.748 16.6813 49.5986 16.404C49.4493 16.1267 49.2413 15.9133 48.9746 15.764C48.7186 15.604 48.4146 15.524 48.0626 15.524C47.7213 15.524 47.4173 15.604 47.1506 15.764C46.884 15.9133 46.676 16.1267 46.5266 16.404C46.3773 16.6813 46.3026 17.012 46.3026 17.396V22.5H44.2066ZM57.755 26.02C57.1043 26.02 56.5017 25.9133 55.947 25.7C55.3923 25.4867 54.9123 25.188 54.507 24.804C54.1123 24.4307 53.8243 23.988 53.643 23.476L55.595 22.74C55.723 23.1453 55.9737 23.4707 56.347 23.716C56.731 23.972 57.2003 24.1 57.755 24.1C58.1817 24.1 58.555 24.02 58.875 23.86C59.2057 23.7 59.4617 23.4653 59.643 23.156C59.8243 22.8573 59.915 22.4947 59.915 22.068V20.084L60.315 20.564C60.0163 21.0867 59.6163 21.4813 59.115 21.748C58.6137 22.0147 58.043 22.148 57.403 22.148C56.5923 22.148 55.867 21.9613 55.227 21.588C54.587 21.2147 54.0857 20.7027 53.723 20.052C53.3603 19.4013 53.179 18.6707 53.179 17.86C53.179 17.0387 53.3603 16.308 53.723 15.668C54.0857 15.028 54.5817 14.5267 55.211 14.164C55.8403 13.7907 56.555 13.604 57.355 13.604C58.0057 13.604 58.5763 13.7427 59.067 14.02C59.5683 14.2867 59.9843 14.676 60.315 15.188L60.027 15.716V13.796H62.011V22.068C62.011 22.8253 61.8243 23.5027 61.451 24.1C61.0883 24.6973 60.587 25.1667 59.947 25.508C59.3177 25.8493 58.587 26.02 57.755 26.02ZM57.659 20.212C58.107 20.212 58.4963 20.116 58.827 19.924C59.1683 19.7213 59.435 19.444 59.627 19.092C59.819 18.74 59.915 18.3347 59.915 17.876C59.915 17.428 59.8137 17.028 59.611 16.676C59.419 16.3133 59.1523 16.0307 58.811 15.828C58.4803 15.6253 58.0963 15.524 57.659 15.524C57.2217 15.524 56.827 15.6253 56.475 15.828C56.123 16.0307 55.8457 16.3133 55.643 16.676C55.451 17.028 55.355 17.428 55.355 17.876C55.355 18.324 55.451 18.724 55.643 19.076C55.8457 19.428 56.1177 19.7053 56.459 19.908C56.811 20.1107 57.211 20.212 57.659 20.212ZM66.9125 22.692C66.2405 22.692 65.6538 22.5427 65.1525 22.244C64.6618 21.9453 64.2832 21.5293 64.0165 20.996C63.7605 20.4627 63.6325 19.8387 63.6325 19.124V13.796H65.7285V18.948C65.7285 19.3107 65.7978 19.6307 65.9365 19.908C66.0858 20.1747 66.2938 20.388 66.5605 20.548C66.8378 20.6973 67.1472 20.772 67.4885 20.772C67.8298 20.772 68.1338 20.6973 68.4005 20.548C68.6672 20.388 68.8752 20.1693 69.0245 19.892C69.1738 19.6147 69.2485 19.284 69.2485 18.9V13.796H71.3445V22.5H69.3605V20.788L69.5365 21.092C69.3338 21.6253 68.9978 22.0253 68.5285 22.292C68.0698 22.5587 67.5312 22.692 66.9125 22.692ZM73.1329 22.5V10.388H75.2289V22.5H73.1329ZM79.6441 22.692C79.0361 22.692 78.5081 22.5907 78.0601 22.388C77.6121 22.1853 77.2655 21.8973 77.0201 21.524C76.7748 21.14 76.6521 20.6973 76.6521 20.196C76.6521 19.716 76.7588 19.2893 76.9721 18.916C77.1855 18.532 77.5161 18.212 77.9641 17.956C78.4121 17.7 78.9775 17.5187 79.6601 17.412L82.5081 16.948V18.548L80.0601 18.964C79.6441 19.0387 79.3348 19.172 79.1321 19.364C78.9295 19.556 78.8281 19.8067 78.8281 20.116C78.8281 20.4147 78.9401 20.6547 79.1641 20.836C79.3988 21.0067 79.6868 21.092 80.0281 21.092C80.4655 21.092 80.8495 21.0013 81.1801 20.82C81.5215 20.628 81.7828 20.3667 81.9641 20.036C82.1561 19.7053 82.2521 19.3427 82.2521 18.948V16.708C82.2521 16.3347 82.1028 16.0253 81.8041 15.78C81.5161 15.524 81.1321 15.396 80.6521 15.396C80.2041 15.396 79.8041 15.5187 79.4521 15.764C79.1108 15.9987 78.8601 16.3133 78.7001 16.708L76.9881 15.876C77.1588 15.4173 77.4255 15.0227 77.7881 14.692C78.1615 14.3507 78.5988 14.084 79.1001 13.892C79.6015 13.7 80.1455 13.604 80.7321 13.604C81.4468 13.604 82.0761 13.7373 82.6201 14.004C83.1641 14.26 83.5855 14.6227 83.8841 15.092C84.1935 15.5507 84.3481 16.0893 84.3481 16.708V22.5H82.3641V21.012L82.8121 20.98C82.5881 21.3533 82.3215 21.668 82.0121 21.924C81.7028 22.1693 81.3508 22.3613 80.9561 22.5C80.5615 22.628 80.1241 22.692 79.6441 22.692ZM86.1254 22.5V13.796H88.0934V15.732L87.9334 15.444C88.136 14.7933 88.4507 14.34 88.8774 14.084C89.3147 13.828 89.8374 13.7 90.4454 13.7H90.9574V15.556H90.2054C89.608 15.556 89.128 15.7427 88.7654 16.116C88.4027 16.4787 88.2214 16.9907 88.2214 17.652V22.5H86.1254ZM94.8095 22.5V10.58H99.2575C100.068 10.58 100.783 10.7293 101.402 11.028C102.031 11.316 102.522 11.7427 102.874 12.308C103.226 12.8627 103.402 13.54 103.402 14.34C103.402 15.1293 103.22 15.8067 102.858 16.372C102.506 16.9267 102.02 17.3533 101.402 17.652C100.783 17.9507 100.068 18.1 99.2575 18.1H96.9855V22.5H94.8095ZM96.9855 16.18H99.2895C99.6842 16.18 100.026 16.1053 100.314 15.956C100.602 15.796 100.826 15.5773 100.986 15.3C101.146 15.0227 101.226 14.7027 101.226 14.34C101.226 13.9667 101.146 13.6467 100.986 13.38C100.826 13.1027 100.602 12.8893 100.314 12.74C100.026 12.58 99.6842 12.5 99.2895 12.5H96.9855V16.18ZM104.848 22.5V13.796H106.816V15.732L106.656 15.444C106.859 14.7933 107.174 14.34 107.6 14.084C108.038 13.828 108.56 13.7 109.168 13.7H109.68V15.556H108.928C108.331 15.556 107.851 15.7427 107.488 16.116C107.126 16.4787 106.944 16.9907 106.944 17.652V22.5H104.848ZM110.673 22.5V13.796H112.769V22.5H110.673ZM110.673 12.82V10.58H112.769V12.82H110.673ZM114.544 22.5V13.796H116.512V15.812L116.288 15.476C116.448 14.8467 116.768 14.3773 117.248 14.068C117.728 13.7587 118.293 13.604 118.944 13.604C119.659 13.604 120.288 13.7907 120.832 14.164C121.376 14.5373 121.728 15.028 121.888 15.636L121.296 15.684C121.563 14.9907 121.963 14.4733 122.496 14.132C123.029 13.78 123.643 13.604 124.336 13.604C124.955 13.604 125.504 13.7427 125.984 14.02C126.475 14.2973 126.859 14.6867 127.136 15.188C127.413 15.6787 127.552 16.2493 127.552 16.9V22.5H125.456V17.396C125.456 17.012 125.387 16.6813 125.248 16.404C125.109 16.1267 124.917 15.9133 124.672 15.764C124.427 15.604 124.128 15.524 123.776 15.524C123.445 15.524 123.152 15.604 122.896 15.764C122.64 15.9133 122.443 16.1267 122.304 16.404C122.165 16.6813 122.096 17.012 122.096 17.396V22.5H120V17.396C120 17.012 119.931 16.6813 119.792 16.404C119.653 16.1267 119.456 15.9133 119.2 15.764C118.955 15.604 118.661 15.524 118.32 15.524C117.989 15.524 117.696 15.604 117.44 15.764C117.184 15.9133 116.987 16.1267 116.848 16.404C116.709 16.6813 116.64 17.012 116.64 17.396V22.5H114.544ZM129.165 22.5V13.796H131.261V22.5H129.165ZM129.165 12.82V10.58H131.261V12.82H129.165ZM137.005 22.596C136.023 22.596 135.261 22.3293 134.717 21.796C134.183 21.252 133.917 20.4893 133.917 19.508V15.668H132.413V13.796H132.573C132.999 13.796 133.33 13.684 133.565 13.46C133.799 13.236 133.917 12.9107 133.917 12.484V11.812H136.013V13.796H138.013V15.668H136.013V19.396C136.013 19.684 136.061 19.9293 136.157 20.132C136.263 20.3347 136.423 20.4893 136.637 20.596C136.861 20.7027 137.143 20.756 137.485 20.756C137.559 20.756 137.645 20.7507 137.741 20.74C137.847 20.7293 137.949 20.7187 138.045 20.708V22.5C137.895 22.5213 137.725 22.5427 137.533 22.564C137.341 22.5853 137.165 22.596 137.005 22.596ZM139.486 22.5V13.796H141.582V22.5H139.486ZM139.486 12.82V10.58H141.582V12.82H139.486ZM145.981 22.5L142.557 13.796H144.845L147.325 20.644H146.477L148.973 13.796H151.261L147.837 22.5H145.981ZM156.232 22.692C155.336 22.692 154.552 22.4893 153.88 22.084C153.208 21.6787 152.685 21.1293 152.312 20.436C151.938 19.7427 151.752 18.9747 151.752 18.132C151.752 17.2573 151.938 16.484 152.312 15.812C152.696 15.1293 153.213 14.5907 153.864 14.196C154.525 13.8013 155.261 13.604 156.072 13.604C156.754 13.604 157.352 13.716 157.864 13.94C158.386 14.164 158.829 14.4733 159.192 14.868C159.554 15.2627 159.832 15.716 160.024 16.228C160.216 16.7293 160.312 17.2733 160.312 17.86C160.312 18.0093 160.301 18.164 160.28 18.324C160.269 18.484 160.242 18.6227 160.2 18.74H153.48V17.14H159.016L158.024 17.892C158.12 17.4013 158.093 16.964 157.944 16.58C157.805 16.196 157.57 15.892 157.24 15.668C156.92 15.444 156.53 15.332 156.072 15.332C155.634 15.332 155.245 15.444 154.904 15.668C154.562 15.8813 154.301 16.2013 154.12 16.628C153.949 17.044 153.885 17.5507 153.928 18.148C153.885 18.6813 153.954 19.156 154.136 19.572C154.328 19.9773 154.605 20.292 154.968 20.516C155.341 20.74 155.768 20.852 156.248 20.852C156.728 20.852 157.133 20.7507 157.464 20.548C157.805 20.3453 158.072 20.0733 158.264 19.732L159.96 20.564C159.789 20.98 159.522 21.348 159.16 21.668C158.797 21.988 158.365 22.2387 157.864 22.42C157.373 22.6013 156.829 22.692 156.232 22.692ZM165.052 22.692C164.124 22.692 163.314 22.4733 162.62 22.036C161.938 21.588 161.468 20.9853 161.212 20.228L162.78 19.476C163.004 19.9667 163.314 20.3507 163.708 20.628C164.114 20.9053 164.562 21.044 165.052 21.044C165.436 21.044 165.74 20.9587 165.964 20.788C166.188 20.6173 166.3 20.3933 166.3 20.116C166.3 19.9453 166.252 19.8067 166.156 19.7C166.071 19.5827 165.948 19.4867 165.788 19.412C165.639 19.3267 165.474 19.2573 165.292 19.204L163.868 18.804C163.132 18.5907 162.572 18.2653 162.188 17.828C161.815 17.3907 161.628 16.8733 161.628 16.276C161.628 15.7427 161.762 15.2787 162.028 14.884C162.306 14.4787 162.684 14.164 163.164 13.94C163.655 13.716 164.215 13.604 164.844 13.604C165.666 13.604 166.391 13.8013 167.02 14.196C167.65 14.5907 168.098 15.1453 168.364 15.86L166.764 16.612C166.615 16.2173 166.364 15.9027 166.012 15.668C165.66 15.4333 165.266 15.316 164.828 15.316C164.476 15.316 164.199 15.396 163.996 15.556C163.794 15.716 163.692 15.924 163.692 16.18C163.692 16.34 163.735 16.4787 163.82 16.596C163.906 16.7133 164.023 16.8093 164.172 16.884C164.332 16.9587 164.514 17.028 164.716 17.092L166.108 17.508C166.823 17.7213 167.372 18.0413 167.756 18.468C168.151 18.8947 168.348 19.4173 168.348 20.036C168.348 20.5587 168.21 21.0227 167.932 21.428C167.655 21.8227 167.271 22.132 166.78 22.356C166.29 22.58 165.714 22.692 165.052 22.692Z" fill="white"/>
</svg>
