<svg width="851" height="125" viewBox="0 0 851 125" fill="none" xmlns="http://www.w3.org/2000/svg">
<mask id="mask0_358_25" style="mask-type:luminance" maskUnits="userSpaceOnUse" x="5" y="19" width="86" height="90">
<path d="M5 19H90.2632V109H5V19Z" fill="white"/>
</mask>
<g mask="url(#mask0_358_25)">
<path d="M89.9103 33.9461L86.8442 81.9676L57.5294 19L89.9103 33.9461ZM69.6058 96.0404L47.4553 108.646L25.3045 96.0404L29.8097 85.1504H65.1006L69.6058 96.0404ZM47.4553 42.9015L59.0622 71.0467H35.8481L47.4553 42.9015ZM8.03468 81.9676L5 33.9461L37.3809 19L8.03468 81.9676Z" fill="url(#paint0_linear_358_25)"/>
<path d="M89.9103 33.9461L86.8442 81.9676L57.5294 19L89.9103 33.9461ZM69.6058 96.0404L47.4553 108.646L25.3045 96.0404L29.8097 85.1504H65.1006L69.6058 96.0404ZM47.4553 42.9015L59.0622 71.0467H35.8481L47.4553 42.9015ZM8.03468 81.9676L5 33.9461L37.3809 19L8.03468 81.9676Z" fill="url(#paint1_linear_358_25)"/>
</g>
<path d="M124.648 96L148.386 37.9H158.429L182.084 96H169.468L165.484 84.961H141.248L137.264 96H124.648ZM145.066 74.918H161.666L155.441 59.065C154.611 56.907 153.864 54.666 153.366 52.425C152.785 54.666 152.121 56.99 151.291 59.065L145.066 74.918ZM187.587 96V52.84H198.626V59.148C200.867 54.334 205.183 51.844 211.823 51.844C221.119 51.844 228.257 58.733 228.257 69.606V96H217.052V72.345C217.052 64.875 213.317 61.638 207.756 61.638C203.025 61.638 198.792 64.875 198.792 72.345V96H187.587ZM259.251 113.679C250.536 113.679 243.73 111.604 238.584 105.545L245.556 97.328C249.623 101.976 253.939 103.304 259.334 103.304C265.31 103.304 270.539 98.407 270.539 91.518V89.609C268.215 93.593 264.48 96.249 257.508 96.249C245.639 96.249 236.592 86.455 236.592 74.005C236.592 61.555 245.639 51.761 257.508 51.761C264.646 51.761 268.464 54.5 270.705 58.733V52.84H281.744V92.182C281.744 105.462 272.448 113.679 259.251 113.679ZM247.797 74.005C247.797 80.562 252.03 86.04 259.334 86.04C266.721 86.04 271.037 80.728 271.037 74.005C271.037 67.282 266.721 61.97 259.334 61.97C252.03 61.97 247.797 67.282 247.797 74.005ZM308.098 96.996C298.802 96.996 291.664 90.107 291.664 79.234V52.84H302.869V76.495C302.869 83.965 305.94 87.202 311.501 87.202C316.232 87.202 320.465 83.965 320.465 76.495V52.84H331.67V96H320.797V89.526C318.722 94.506 314.821 96.996 308.098 96.996ZM342.015 96V35.41H353.22V96H342.015ZM383.253 97.079C371.384 97.079 361.922 87.036 361.922 74.586C361.922 62.136 371.384 51.927 383.253 51.927C390.723 51.927 394.624 54.998 396.948 59.646V52.84H408.07V96H397.197V88.945C394.873 93.842 390.972 97.079 383.253 97.079ZM373.127 74.503C373.127 81.06 377.941 86.953 385.079 86.953C392.466 86.953 397.197 81.309 397.197 74.586C397.197 67.863 392.466 62.053 385.079 62.053C377.941 62.053 373.127 67.78 373.127 74.503ZM418.463 96V52.84H429.336V61.057C430.83 54.832 435.229 51.429 442.699 51.844V62.385H441.122C434.648 62.385 429.668 66.701 429.668 73.922V96H418.463ZM468.344 96V37.9H487.932C500.963 37.9 508.931 44.042 508.931 56.243C508.931 68.527 500.963 74.918 487.932 74.918H479.964V96H468.344ZM479.964 64.46H487.268C493.576 64.46 497.145 61.887 497.145 56.326C497.145 50.848 493.576 48.275 487.268 48.275H479.964V64.46ZM516.802 96V52.84H527.675V61.057C529.169 54.832 533.568 51.429 541.038 51.844V62.385H539.461C532.987 62.385 528.007 66.701 528.007 73.922V96H516.802ZM548.501 96V52.84H559.706V96H548.501ZM547.339 42.631C547.339 39.062 550.244 36.074 554.062 36.074C557.963 36.074 560.785 39.062 560.785 42.631C560.785 46.366 557.963 49.271 554.062 49.271C550.244 49.271 547.339 46.283 547.339 42.631ZM570.068 96V52.84H581.107V59.148C583.348 54.334 587.664 51.844 594.304 51.844C600.363 51.844 605.509 54.749 608.331 59.978C611.236 54.749 615.386 51.844 622.939 51.844C632.235 51.844 639.373 58.733 639.373 69.606V96H628.168V72.345C628.168 64.875 624.599 61.638 619.536 61.638C614.307 61.638 610.738 64.045 610.738 72.345V96H599.533V72.345C599.533 64.875 595.798 61.638 590.237 61.638C585.506 61.638 581.273 64.875 581.273 72.345V96H570.068ZM649.346 96V52.84H660.551V96H649.346ZM648.184 42.631C648.184 39.062 651.089 36.074 654.907 36.074C658.808 36.074 661.63 39.062 661.63 42.631C661.63 46.366 658.808 49.271 654.907 49.271C651.089 49.271 648.184 46.283 648.184 42.631ZM687.264 96C678.715 96 674.067 92.016 674.067 82.637V62.385H668.008V52.84H674.067V44.125L685.272 42.963V52.84H694.402V62.385H685.272V82.056C685.272 84.795 686.6 86.04 688.758 86.04H693.406V96H687.264ZM701.882 96V52.84H713.087V96H701.882ZM700.72 42.631C700.72 39.062 703.625 36.074 707.443 36.074C711.344 36.074 714.166 39.062 714.166 42.631C714.166 46.366 711.344 49.271 707.443 49.271C703.625 49.271 700.72 46.283 700.72 42.631ZM736.895 96L718.884 52.84H732.164L740.796 77.491C741.543 79.566 742.207 82.139 742.622 84.38C743.037 82.139 743.701 79.566 744.448 77.491L753.08 52.84H766.111L748.183 96H736.895ZM789.837 97.079C776.474 97.079 767.51 86.953 767.51 74.503C767.51 62.053 776.889 51.761 789.837 51.761C802.785 51.761 811.749 62.053 811.749 74.503C811.749 75.748 811.666 77.076 811.417 78.487H779.13C780.375 83.55 784.193 87.119 789.837 87.119C794.651 87.119 798.386 84.629 800.378 81.309L809.093 87.866C805.607 93.261 798.386 97.079 789.837 97.079ZM779.13 70.104H800.461C799.216 65.29 795.149 61.389 789.671 61.389C784.359 61.389 780.375 64.958 779.13 70.104ZM833.962 97.079C826.658 97.079 820.765 94.589 816.034 89.526L823.587 82.637C826.741 86.206 830.061 87.949 833.713 87.949C837.531 87.949 839.689 86.04 839.689 83.467C839.689 81.226 838.61 79.981 831.804 78.404C820.267 75.665 818.524 70.436 818.524 64.958C818.524 57.405 824.5 51.761 834.626 51.761C841.598 51.761 846.246 53.504 850.645 59.231L842.511 65.456C840.436 62.136 837.78 60.808 834.875 60.808C831.804 60.808 829.48 61.97 829.48 64.626C829.48 66.12 830.144 67.448 835.29 68.776C847.823 72.013 850.728 76.661 850.728 83.135C850.728 91.103 843.507 97.079 833.962 97.079Z" fill="black"/>
<defs>
<linearGradient id="paint0_linear_358_25" x1="23.7384" y1="100.515" x2="91.2801" y2="68.3345" gradientUnits="userSpaceOnUse">
<stop stop-color="#E90364"/>
<stop offset="1" stop-color="#FA2C05"/>
</linearGradient>
<linearGradient id="paint1_linear_358_25" x1="20.6857" y1="29.8092" x2="64.7996" y2="80.2615" gradientUnits="userSpaceOnUse">
<stop stop-color="#E90364"/>
<stop offset="1" stop-color="#FA2C05"/>
</linearGradient>
</defs>
</svg>
