<svg width="851" height="125" viewBox="0 0 851 125" fill="none" xmlns="http://www.w3.org/2000/svg">
<path d="M68.5669 21.3818L97.9997 84.7203L101.059 36.409L68.5669 21.3818Z" fill="url(#paint0_linear_350_9)"/>
<path d="M76.1596 87.9377H40.7428L36.2212 98.8943L58.4512 111.569L80.6812 98.8943L76.1596 87.9377Z" fill="url(#paint1_linear_350_9)"/>
<path d="M46.8123 73.7271H70.1026L58.4513 45.4155L46.8123 73.7271Z" fill="url(#paint2_linear_350_9)"/>
<path d="M48.3356 21.3818L15.8438 36.409L18.9028 84.7203L48.3356 21.3818Z" fill="url(#paint3_linear_350_9)"/>
<path d="M123.648 96L147.386 37.9H157.429L181.084 96H168.468L164.484 84.961H140.248L136.264 96H123.648ZM144.066 74.918H160.666L154.441 59.065C153.611 56.907 152.864 54.666 152.366 52.425C151.785 54.666 151.121 56.99 150.291 59.065L144.066 74.918ZM186.587 96V52.84H197.626V59.148C199.867 54.334 204.183 51.844 210.823 51.844C220.119 51.844 227.257 58.733 227.257 69.606V96H216.052V72.345C216.052 64.875 212.317 61.638 206.756 61.638C202.025 61.638 197.792 64.875 197.792 72.345V96H186.587ZM258.251 113.679C249.536 113.679 242.73 111.604 237.584 105.545L244.556 97.328C248.623 101.976 252.939 103.304 258.334 103.304C264.31 103.304 269.539 98.407 269.539 91.518V89.609C267.215 93.593 263.48 96.249 256.508 96.249C244.639 96.249 235.592 86.455 235.592 74.005C235.592 61.555 244.639 51.761 256.508 51.761C263.646 51.761 267.464 54.5 269.705 58.733V52.84H280.744V92.182C280.744 105.462 271.448 113.679 258.251 113.679ZM246.797 74.005C246.797 80.562 251.03 86.04 258.334 86.04C265.721 86.04 270.037 80.728 270.037 74.005C270.037 67.282 265.721 61.97 258.334 61.97C251.03 61.97 246.797 67.282 246.797 74.005ZM307.098 96.996C297.802 96.996 290.664 90.107 290.664 79.234V52.84H301.869V76.495C301.869 83.965 304.94 87.202 310.501 87.202C315.232 87.202 319.465 83.965 319.465 76.495V52.84H330.67V96H319.797V89.526C317.722 94.506 313.821 96.996 307.098 96.996ZM341.015 96V35.41H352.22V96H341.015ZM382.253 97.079C370.384 97.079 360.922 87.036 360.922 74.586C360.922 62.136 370.384 51.927 382.253 51.927C389.723 51.927 393.624 54.998 395.948 59.646V52.84H407.07V96H396.197V88.945C393.873 93.842 389.972 97.079 382.253 97.079ZM372.127 74.503C372.127 81.06 376.941 86.953 384.079 86.953C391.466 86.953 396.197 81.309 396.197 74.586C396.197 67.863 391.466 62.053 384.079 62.053C376.941 62.053 372.127 67.78 372.127 74.503ZM417.463 96V52.84H428.336V61.057C429.83 54.832 434.229 51.429 441.699 51.844V62.385H440.122C433.648 62.385 428.668 66.701 428.668 73.922V96H417.463ZM467.344 96V37.9H486.932C499.963 37.9 507.931 44.042 507.931 56.243C507.931 68.527 499.963 74.918 486.932 74.918H478.964V96H467.344ZM478.964 64.46H486.268C492.576 64.46 496.145 61.887 496.145 56.326C496.145 50.848 492.576 48.275 486.268 48.275H478.964V64.46ZM515.802 96V52.84H526.675V61.057C528.169 54.832 532.568 51.429 540.038 51.844V62.385H538.461C531.987 62.385 527.007 66.701 527.007 73.922V96H515.802ZM547.501 96V52.84H558.706V96H547.501ZM546.339 42.631C546.339 39.062 549.244 36.074 553.062 36.074C556.963 36.074 559.785 39.062 559.785 42.631C559.785 46.366 556.963 49.271 553.062 49.271C549.244 49.271 546.339 46.283 546.339 42.631ZM569.068 96V52.84H580.107V59.148C582.348 54.334 586.664 51.844 593.304 51.844C599.363 51.844 604.509 54.749 607.331 59.978C610.236 54.749 614.386 51.844 621.939 51.844C631.235 51.844 638.373 58.733 638.373 69.606V96H627.168V72.345C627.168 64.875 623.599 61.638 618.536 61.638C613.307 61.638 609.738 64.045 609.738 72.345V96H598.533V72.345C598.533 64.875 594.798 61.638 589.237 61.638C584.506 61.638 580.273 64.875 580.273 72.345V96H569.068ZM648.346 96V52.84H659.551V96H648.346ZM647.184 42.631C647.184 39.062 650.089 36.074 653.907 36.074C657.808 36.074 660.63 39.062 660.63 42.631C660.63 46.366 657.808 49.271 653.907 49.271C650.089 49.271 647.184 46.283 647.184 42.631ZM686.264 96C677.715 96 673.067 92.016 673.067 82.637V62.385H667.008V52.84H673.067V44.125L684.272 42.963V52.84H693.402V62.385H684.272V82.056C684.272 84.795 685.6 86.04 687.758 86.04H692.406V96H686.264ZM700.882 96V52.84H712.087V96H700.882ZM699.72 42.631C699.72 39.062 702.625 36.074 706.443 36.074C710.344 36.074 713.166 39.062 713.166 42.631C713.166 46.366 710.344 49.271 706.443 49.271C702.625 49.271 699.72 46.283 699.72 42.631ZM735.895 96L717.884 52.84H731.164L739.796 77.491C740.543 79.566 741.207 82.139 741.622 84.38C742.037 82.139 742.701 79.566 743.448 77.491L752.08 52.84H765.111L747.183 96H735.895ZM788.837 97.079C775.474 97.079 766.51 86.953 766.51 74.503C766.51 62.053 775.889 51.761 788.837 51.761C801.785 51.761 810.749 62.053 810.749 74.503C810.749 75.748 810.666 77.076 810.417 78.487H778.13C779.375 83.55 783.193 87.119 788.837 87.119C793.651 87.119 797.386 84.629 799.378 81.309L808.093 87.866C804.607 93.261 797.386 97.079 788.837 97.079ZM778.13 70.104H799.461C798.216 65.29 794.149 61.389 788.671 61.389C783.359 61.389 779.375 64.958 778.13 70.104ZM832.962 97.079C825.658 97.079 819.765 94.589 815.034 89.526L822.587 82.637C825.741 86.206 829.061 87.949 832.713 87.949C836.531 87.949 838.689 86.04 838.689 83.467C838.689 81.226 837.61 79.981 830.804 78.404C819.267 75.665 817.524 70.436 817.524 64.958C817.524 57.405 823.5 51.761 833.626 51.761C840.598 51.761 845.246 53.504 849.645 59.231L841.511 65.456C839.436 62.136 836.78 60.808 833.875 60.808C830.804 60.808 828.48 61.97 828.48 64.626C828.48 66.12 829.144 67.448 834.29 68.776C846.823 72.013 849.728 76.661 849.728 83.135C849.728 91.103 842.507 97.079 832.962 97.079Z" fill="black"/>
<defs>
<linearGradient id="paint0_linear_350_9" x1="145.648" y1="2.85401" x2="284.18" y2="44.3633" gradientUnits="userSpaceOnUse">
<stop stop-color="#F4184F"/>
<stop offset="0.484375" stop-color="#F73BF3"/>
<stop offset="1" stop-color="#D045FF"/>
</linearGradient>
<linearGradient id="paint1_linear_350_9" x1="141.694" y1="81.025" x2="235.27" y2="183.857" gradientUnits="userSpaceOnUse">
<stop stop-color="#F4184F"/>
<stop offset="0.484375" stop-color="#F73BF3"/>
<stop offset="1" stop-color="#D045FF"/>
</linearGradient>
<linearGradient id="paint2_linear_350_9" x1="102.064" y1="37.1338" x2="189.981" y2="79.3784" gradientUnits="userSpaceOnUse">
<stop stop-color="#F4184F"/>
<stop offset="0.484375" stop-color="#F73BF3"/>
<stop offset="1" stop-color="#D045FF"/>
</linearGradient>
<linearGradient id="paint3_linear_350_9" x1="92.9245" y1="2.85401" x2="231.457" y2="44.3633" gradientUnits="userSpaceOnUse">
<stop stop-color="#F4184F"/>
<stop offset="0.484375" stop-color="#F73BF3"/>
<stop offset="1" stop-color="#D045FF"/>
</linearGradient>
</defs>
</svg>
