<svg width="539" height="108" viewBox="0 0 539 108" fill="none" xmlns="http://www.w3.org/2000/svg">
<path d="M117.423 82.9999L141.161 24.8999H151.204L174.859 82.9999H162.243L158.259 71.9609H134.023L130.039 82.9999H117.423ZM144.066 46.0649L137.841 61.9179H154.441L148.216 46.0649C147.386 43.8516 146.694 41.6382 146.141 39.4249C145.588 41.8042 144.896 44.0176 144.066 46.0649ZM180.777 82.9999V39.8399H191.816V46.1479C194.084 41.2786 198.483 38.8439 205.013 38.8439C208.111 38.8439 210.906 39.5632 213.396 41.0019C215.886 42.4406 217.85 44.4879 219.289 47.1439C220.727 49.7999 221.447 52.9539 221.447 56.6059V82.9999H210.242V59.3449C210.242 55.5822 209.384 52.8709 207.669 51.2109C205.953 49.4956 203.712 48.6379 200.946 48.6379C198.566 48.6379 196.464 49.4956 194.638 51.2109C192.867 52.8709 191.982 55.5822 191.982 59.3449V82.9999H180.777ZM252.856 100.679C248.485 100.679 244.584 100.07 241.153 98.8529C237.778 97.6909 234.79 95.5882 232.189 92.5449L239.161 84.3279C241.209 86.6519 243.339 88.2289 245.552 89.0589C247.766 89.8889 250.228 90.3039 252.939 90.3039C254.931 90.3039 256.785 89.8059 258.5 88.8099C260.216 87.8139 261.571 86.4029 262.567 84.5769C263.619 82.8062 264.144 80.7866 264.144 78.5179V76.6089C262.982 78.6009 261.378 80.2056 259.33 81.4229C257.338 82.6402 254.599 83.2489 251.113 83.2489C247.185 83.2489 243.616 82.2529 240.406 80.2609C237.252 78.2689 234.762 75.6129 232.936 72.2929C231.11 68.9176 230.197 65.1549 230.197 61.0049C230.197 56.8549 231.11 53.0922 232.936 49.7169C234.762 46.3416 237.252 43.6856 240.406 41.7489C243.616 39.7569 247.185 38.7609 251.113 38.7609C254.71 38.7609 257.504 39.3972 259.496 40.6699C261.544 41.9426 263.148 43.6302 264.31 45.7329V39.8399H275.349V79.1819C275.349 83.6086 274.381 87.4266 272.444 90.6359C270.563 93.8452 267.935 96.3076 264.559 98.0229C261.184 99.7936 257.283 100.679 252.856 100.679ZM252.939 73.0399C256.647 73.0399 259.524 71.8779 261.571 69.5539C263.619 67.2299 264.642 64.3802 264.642 61.0049C264.642 57.6296 263.619 54.7799 261.571 52.4559C259.524 50.1319 256.647 48.9699 252.939 48.9699C249.287 48.9699 246.438 50.1319 244.39 52.4559C242.398 54.7799 241.402 57.6296 241.402 61.0049C241.402 63.1629 241.845 65.1549 242.73 66.9809C243.671 68.8069 244.999 70.2732 246.714 71.3799C248.43 72.4866 250.505 73.0399 252.939 73.0399ZM302.118 83.9959C299.019 83.9959 296.225 83.2766 293.735 81.8379C291.245 80.3992 289.281 78.3519 287.842 75.6959C286.403 72.9846 285.684 69.8306 285.684 66.2339V39.8399H296.889V63.4949C296.889 67.2022 297.636 69.9136 299.13 71.6289C300.624 73.3442 302.754 74.2019 305.521 74.2019C307.9 74.2019 309.975 73.3442 311.746 71.6289C313.572 69.9136 314.485 67.2022 314.485 63.4949V39.8399H325.69V82.9999H314.817V76.5259C313.766 79.0159 312.216 80.8972 310.169 82.1699C308.177 83.3872 305.493 83.9959 302.118 83.9959ZM336.45 82.9999V22.4099H347.655V82.9999H336.45ZM378.103 84.0789C374.175 84.0789 370.578 83.0829 367.313 81.0909C364.104 79.0436 361.531 76.3322 359.594 72.9569C357.713 69.5262 356.772 65.7359 356.772 61.5859C356.772 58.4872 357.326 55.5822 358.432 52.8709C359.539 50.1042 361.061 47.6972 362.997 45.6499C364.934 43.5472 367.175 41.9149 369.72 40.7529C372.321 39.5356 375.115 38.9269 378.103 38.9269C381.866 38.9269 384.799 39.6462 386.901 41.0849C389.004 42.4682 390.636 44.3219 391.798 46.6459V39.8399H402.92V82.9999H392.047V75.9449C390.885 78.3796 389.225 80.3439 387.067 81.8379C384.965 83.3319 381.977 84.0789 378.103 84.0789ZM379.929 73.9529C382.419 73.9529 384.55 73.3996 386.32 72.2929C388.146 71.1309 389.557 69.6092 390.553 67.7279C391.549 65.8466 392.047 63.7992 392.047 61.5859C392.047 59.3172 391.549 57.2422 390.553 55.3609C389.557 53.4796 388.146 51.9579 386.32 50.7959C384.55 49.6339 382.419 49.0529 379.929 49.0529C377.55 49.0529 375.447 49.6339 373.621 50.7959C371.851 51.9026 370.467 53.3966 369.471 55.2779C368.475 57.1592 367.977 59.2342 367.977 61.5029C367.977 63.6609 368.475 65.7082 369.471 67.6449C370.467 69.5262 371.851 71.0479 373.621 72.2099C375.447 73.3719 377.55 73.9529 379.929 73.9529ZM413.728 82.9999V39.8399H424.601V48.0569C425.32 44.9582 426.786 42.6066 429 41.0019C431.213 39.3419 434.201 38.6226 437.964 38.8439V49.3849H436.387C433.177 49.3849 430.466 50.4086 428.253 52.4559C426.039 54.5032 424.933 57.3252 424.933 60.9219V82.9999H413.728ZM487.098 84.0789C482.395 84.0789 478.272 83.1382 474.731 81.2569C471.19 79.3202 468.451 76.6642 466.514 73.2889C464.577 69.8582 463.609 65.9296 463.609 61.5029V24.8999H475.229V60.2579C475.229 64.3526 476.197 67.5896 478.134 69.9689C480.126 72.2929 483.114 73.4549 487.098 73.4549C491.082 73.4549 494.042 72.2929 495.979 69.9689C497.971 67.5896 498.967 64.3526 498.967 60.2579V24.8999H510.587V61.5029C510.587 65.9296 509.619 69.8582 507.682 73.2889C505.745 76.6642 503.006 79.3202 499.465 81.2569C495.979 83.1382 491.857 84.0789 487.098 84.0789ZM522.247 82.9999V24.8999H533.867V82.9999H522.247Z" fill="white"/>
<mask id="mask0_1577_2679" style="mask-type:luminance" maskUnits="userSpaceOnUse" x="0" y="9" width="86" height="90">
<path d="M0 9H85.2632V99H0V9Z" fill="white"/>
</mask>
<g mask="url(#mask0_1577_2679)">
<path d="M84.9103 23.9461L81.8442 71.9676L52.5294 9L84.9103 23.9461ZM64.6058 86.0404L42.4553 98.646L20.3045 86.0404L24.8097 75.1504H60.1006L64.6058 86.0404ZM42.4553 32.9015L54.0622 61.0467H30.8481L42.4553 32.9015ZM3.03468 71.9676L0 23.9461L32.3809 9L3.03468 71.9676Z" fill="url(#paint0_linear_1577_2679)"/>
<path d="M84.9103 23.9461L81.8442 71.9676L52.5294 9L84.9103 23.9461ZM64.6058 86.0404L42.4553 98.646L20.3045 86.0404L24.8097 75.1504H60.1006L64.6058 86.0404ZM42.4553 32.9015L54.0622 61.0467H30.8481L42.4553 32.9015ZM3.03468 71.9676L0 23.9461L32.3809 9L3.03468 71.9676Z" fill="white"/>
</g>
<defs>
<linearGradient id="paint0_linear_1577_2679" x1="18.7384" y1="90.515" x2="86.2801" y2="58.3345" gradientUnits="userSpaceOnUse">
<stop stop-color="#4A00E0"/>
<stop offset="1" stop-color="#4364F7"/>
</linearGradient>
</defs>
</svg>
