<svg xmlns="http://www.w3.org/2000/svg" width="500" height="150" viewBox="0 0 500 150" fill="none">
<path opacity="0.6" d="M73.549 86.4674H6.68627C2.99355 86.4674 0 89.461 0 93.1537V106.526C0 110.219 2.99355 113.213 6.68627 113.213H73.549C77.2417 113.213 80.2353 110.219 80.2353 106.526V93.1537C80.2353 89.461 77.2417 86.4674 73.549 86.4674Z" fill="#fff"/>
<path opacity="0.8" d="M28.4167 59.7225H5.0147C2.24516 59.7225 0 61.9676 0 64.7372V74.7666C0 77.5361 2.24516 79.7813 5.0147 79.7813H28.4167C31.1862 79.7813 33.4314 77.5361 33.4314 74.7666V64.7372C33.4314 61.9676 31.1862 59.7225 28.4167 59.7225Z" fill="#fff"/>
<path opacity="0.8" d="M75.2204 59.7225H51.8184C49.0489 59.7225 46.8037 61.9676 46.8037 64.7372V74.7666C46.8037 77.5361 49.0489 79.7813 51.8184 79.7813H75.2204C77.9899 79.7813 80.2351 77.5361 80.2351 74.7666V64.7372C80.2351 61.9676 77.9899 59.7225 75.2204 59.7225Z" fill="#fff"/>
<path d="M30.0887 39.6638H16.7162C14.8698 39.6638 13.373 41.1605 13.373 43.0069V49.6932C13.373 51.5395 14.8698 53.0363 16.7162 53.0363H30.0887C31.9351 53.0363 33.4319 51.5395 33.4319 49.6932V43.0069C33.4319 41.1605 31.9351 39.6638 30.0887 39.6638Z" fill="#fff"/>
<path d="M63.5194 39.6638H50.1468C48.3005 39.6638 46.8037 41.1605 46.8037 43.0069V49.6932C46.8037 51.5395 48.3005 53.0363 50.1468 53.0363H63.5194C65.3658 53.0363 66.8625 51.5395 66.8625 49.6932V43.0069C66.8625 41.1605 65.3658 39.6638 63.5194 39.6638Z" fill="#fff"/>
<path d="M175.215 52.0884C174.692 47.6741 172.572 44.2472 168.855 41.8077C165.137 39.3683 160.578 38.1485 155.176 38.1485C151.226 38.1485 147.771 38.7874 144.808 40.0653C141.875 41.3431 139.581 43.1001 137.925 45.3363C136.299 47.5725 135.486 50.1136 135.486 52.9597C135.486 55.3411 136.052 57.3885 137.185 59.102C138.347 60.7864 139.828 62.1949 141.628 63.3275C143.429 64.4311 145.316 65.3459 147.291 66.0719C149.266 66.7689 151.081 67.3352 152.737 67.7708L161.798 70.2103C164.121 70.8202 166.706 71.6624 169.552 72.7369C172.427 73.8115 175.171 75.2781 177.785 77.1367C180.428 78.9663 182.606 81.3187 184.319 84.1938C186.033 87.0689 186.889 90.5974 186.889 94.7794C186.889 99.6003 185.626 103.957 183.099 107.848C180.602 111.74 176.943 114.833 172.122 117.127C167.33 119.421 161.507 120.568 154.653 120.568C148.264 120.568 142.732 119.537 138.056 117.475C133.409 115.413 129.75 112.538 127.078 108.85C124.436 105.162 122.94 100.878 122.592 95.9991H133.743C134.034 99.368 135.166 102.156 137.141 104.363C139.145 106.541 141.672 108.168 144.721 109.242C147.8 110.288 151.11 110.81 154.653 110.81C158.777 110.81 162.48 110.142 165.762 108.806C169.043 107.441 171.643 105.554 173.559 103.143C175.476 100.704 176.434 97.8578 176.434 94.6052C176.434 91.6429 175.607 89.2325 173.951 87.3738C172.296 85.5152 170.118 84.005 167.417 82.8434C164.716 81.6817 161.798 80.6652 158.661 79.794L147.683 76.6575C140.713 74.6537 135.196 71.7931 131.13 68.0758C127.064 64.3585 125.031 59.494 125.031 53.4824C125.031 48.4873 126.381 44.1311 129.082 40.4138C131.812 36.6674 135.471 33.7633 140.06 31.7013C144.678 29.6103 149.832 28.5648 155.525 28.5648C161.275 28.5648 166.386 29.5958 170.858 31.6578C175.331 33.6907 178.874 36.4786 181.488 40.0217C184.13 43.5648 185.524 47.587 185.67 52.0884H175.215ZM207.35 29.7846V119H197.069V29.7846H207.35ZM239.681 120.568C235.441 120.568 231.593 119.77 228.137 118.172C224.681 116.546 221.937 114.208 219.904 111.159C217.871 108.08 216.855 104.363 216.855 100.007C216.855 96.1734 217.61 93.066 219.12 90.6846C220.63 88.2741 222.649 86.3864 225.175 85.0215C227.702 83.6565 230.49 82.6401 233.539 81.9721C236.618 81.2751 239.71 80.7233 242.818 80.3168C246.884 79.794 250.18 79.4019 252.706 79.1406C255.262 78.8502 257.121 78.371 258.282 77.703C259.473 77.0351 260.069 75.8734 260.069 74.218V73.8695C260.069 69.5714 258.892 66.2316 256.54 63.8502C254.217 61.4688 250.688 60.2781 245.954 60.2781C241.046 60.2781 237.198 61.3527 234.41 63.5017C231.622 65.6508 229.662 67.9451 228.529 70.3846L218.772 66.8996C220.514 62.8338 222.837 59.6683 225.741 57.403C228.675 55.1087 231.869 53.5115 235.325 52.6112C238.81 51.6819 242.237 51.2172 245.606 51.2172C247.755 51.2172 250.223 51.4786 253.011 52.0013C255.828 52.495 258.544 53.526 261.158 55.0942C263.8 56.6625 265.993 59.0293 267.735 62.1949C269.478 65.3604 270.349 69.6004 270.349 74.915V119H260.069V109.939H259.546C258.849 111.391 257.687 112.945 256.061 114.6C254.434 116.256 252.271 117.664 249.57 118.826C246.869 119.987 243.573 120.568 239.681 120.568ZM241.25 111.333C245.315 111.333 248.742 110.534 251.53 108.937C254.347 107.34 256.467 105.278 257.89 102.751C259.342 100.225 260.069 97.5674 260.069 94.7794V85.37C259.633 85.8927 258.675 86.3719 257.193 86.8075C255.741 87.2141 254.057 87.5771 252.14 87.8966C250.252 88.187 248.408 88.4484 246.608 88.6807C244.836 88.884 243.399 89.0582 242.295 89.2034C239.623 89.5519 237.126 90.1182 234.802 90.9024C232.508 91.6574 230.649 92.8046 229.226 94.3438C227.832 95.8539 227.135 97.9159 227.135 100.53C227.135 104.102 228.457 106.803 231.1 108.632C233.771 110.433 237.155 111.333 241.25 111.333ZM312.025 52.0884V60.8009H277.349V52.0884H312.025ZM287.456 36.0575H297.736V99.8326C297.736 102.737 298.157 104.915 299 106.367C299.871 107.79 300.974 108.748 302.31 109.242C303.675 109.707 305.113 109.939 306.623 109.939C307.756 109.939 308.685 109.881 309.411 109.765C310.137 109.62 310.718 109.503 311.153 109.416L313.244 118.652C312.547 118.913 311.575 119.174 310.326 119.436C309.077 119.726 307.494 119.871 305.577 119.871C302.673 119.871 299.827 119.247 297.039 117.998C294.28 116.749 291.986 114.847 290.156 112.291C288.356 109.736 287.456 106.512 287.456 102.621V36.0575ZM348.636 120.394C342.189 120.394 336.627 118.971 331.952 116.125C327.305 113.25 323.718 109.242 321.192 104.102C318.694 98.9323 317.445 92.9208 317.445 86.067C317.445 79.2132 318.694 73.1725 321.192 67.9451C323.718 62.6886 327.232 58.5937 331.734 55.6605C336.264 52.6983 341.55 51.2172 347.591 51.2172C351.075 51.2172 354.517 51.798 357.915 52.9597C361.313 54.1213 364.406 56.009 367.194 58.6228C369.981 61.2075 372.203 64.6344 373.859 68.9034C375.514 73.1725 376.342 78.4291 376.342 84.673V89.0292H324.764V80.1425H365.887C365.887 76.3671 365.132 72.9983 363.621 70.0361C362.14 67.0738 360.02 64.736 357.261 63.0225C354.531 61.3091 351.308 60.4524 347.591 60.4524C343.496 60.4524 339.953 61.4688 336.961 63.5017C333.999 65.5056 331.719 68.1193 330.122 71.3429C328.525 74.5665 327.726 78.0225 327.726 81.7107V87.6352C327.726 92.6884 328.597 96.972 330.34 100.486C332.111 103.971 334.565 106.628 337.702 108.458C340.838 110.259 344.483 111.159 348.636 111.159C351.337 111.159 353.776 110.781 355.954 110.026C358.162 109.242 360.064 108.08 361.661 106.541C363.258 104.973 364.493 103.027 365.364 100.704L375.296 103.492C374.251 106.861 372.494 109.823 370.025 112.379C367.557 114.905 364.507 116.88 360.877 118.303C357.247 119.697 353.166 120.394 348.636 120.394Z" fill="#fff"/>
<path d="M445.733 29.7846H456.537V88.8549C456.537 94.9537 455.099 100.399 452.224 105.191C449.378 109.954 445.356 113.714 440.158 116.473C434.959 119.203 428.86 120.568 421.861 120.568C414.862 120.568 408.764 119.203 403.565 116.473C398.367 113.714 394.33 109.954 391.455 105.191C388.609 100.399 387.186 94.9537 387.186 88.8549V29.7846H397.989V87.9837C397.989 92.3399 398.948 96.217 400.864 99.6148C402.781 102.984 405.511 105.641 409.054 107.587C412.626 109.503 416.895 110.462 421.861 110.462C426.827 110.462 431.097 109.503 434.669 107.587C438.241 105.641 440.971 102.984 442.858 99.6148C444.775 96.217 445.733 92.3399 445.733 87.9837V29.7846ZM482.726 29.7846V119H471.923V29.7846H482.726Z" fill="#fff"/>
</svg>
