<svg version="1.1" id="Layer_1" xmlns="http://www.w3.org/2000/svg" xmlns:xlink="http://www.w3.org/1999/xlink" x="0px" y="0px" viewBox="-164.5 -42 498.7 113.5" style="enable-background:new -164.5 -42 498.7 113.5;" xml:space="preserve">
 <style type="text/css">
  .st0{fill:#FFFFFF;}
	.st1{opacity:0.4;fill:#FFFFFF;enable-background:new    ;}
 </style>
 <g>
  <path class="st0" d="M-0.5,39.1c-4.2-2.3-7.4-5.6-9.6-9.8c-2.2-4.2-3.3-9.1-3.3-14.6c0-5.5,1.1-10.4,3.3-14.6
		C-7.8-4-4.6-7.3-0.5-9.6C3.7-11.9,8.6-13,14.2-13c3.5,0,6.9,0.5,10.2,1.6c3.3,1.1,6,2.5,8.1,4.3l-4.4,10c-4.4-3.1-9-4.7-13.6-4.7
		c-4.4,0-7.8,1.4-10.1,4.2C2.1,5.1,1,9.2,1,14.7c0,5.5,1.2,9.6,3.5,12.4c2.3,2.8,5.7,4.2,10.1,4.2c4.6,0,9.2-1.6,13.6-4.7l4.4,10
		c-2.1,1.8-4.8,3.2-8.1,4.3c-3.3,1.1-6.7,1.6-10.2,1.6C8.6,42.5,3.7,41.4-0.5,39.1z">
  </path>
  <path class="st0" d="M63.1,22.7c0-6.4-2.4-9.5-7.3-9.5c-4.9,0-7.3,3.2-7.3,9.5c0,6.4,2.4,9.5,7.3,9.5
		C60.6,32.2,63.1,29.1,63.1,22.7z M44.9,40c-3.1-1.6-5.6-3.9-7.3-6.9c-1.7-3-2.6-6.5-2.6-10.4c0-4,0.9-7.5,2.6-10.4
		c1.7-2.9,4.1-5.2,7.2-6.8c3.1-1.6,6.8-2.4,11-2.4c4.2,0,7.8,0.8,11,2.4c3.1,1.6,5.5,3.9,7.2,6.8c1.7,2.9,2.6,6.4,2.6,10.4
		c0,4-0.9,7.5-2.6,10.4c-1.7,3-4.1,5.3-7.2,6.9c-3.1,1.6-6.8,2.4-11,2.4C51.7,42.5,48,41.7,44.9,40z">
  </path>
  <path class="st0" d="M111.2,14.3l-7.4,0.8c-3,0.3-5,1.1-6.2,2.4c-1.2,1.3-1.8,3.1-1.8,5.5v19H82.1V4h12.9v6.5
		c0.9-2.3,2.3-4.1,4.3-5.3c2-1.2,4.4-1.9,7.3-2l3.8-0.3L111.2,14.3z">
  </path>
  <path class="st0" d="M134.9,31.4c1.2-1.3,1.8-3,1.8-5v-0.9h-1.2c-3.3,0-5.6,0.3-7,0.9c-1.4,0.6-2.1,1.6-2.1,3
		c0,1.2,0.4,2.2,1.1,2.9c0.7,0.8,1.7,1.2,2.9,1.2C132.2,33.3,133.8,32.7,134.9,31.4z M145.4,7.2c2.8,2.7,4.3,7,4.3,12.8v21.8h-12.8
		v-5.3c-0.7,1.8-1.9,3.3-3.6,4.3c-1.7,1-3.7,1.6-6,1.6c-2.6,0-5-0.5-7-1.6c-2.1-1.1-3.7-2.5-4.9-4.4c-1.2-1.9-1.8-4-1.8-6.3
		c0-2.7,0.7-4.9,2.1-6.5c1.4-1.6,3.6-2.8,6.7-3.5c3.1-0.7,7.2-1.1,12.4-1.1h2.1v-0.9c0-1.9-0.4-3.2-1.3-4c-0.9-0.7-2.4-1.1-4.6-1.1
		c-1.7,0-3.7,0.3-6,1c-2.3,0.7-4.4,1.6-6.4,2.6l-3.4-9c2.2-1.3,4.9-2.4,8.2-3.3c3.3-0.9,6.3-1.3,9.1-1.3
		C138.2,3.1,142.5,4.5,145.4,7.2z">
  </path>
  <path class="st0" d="M156,41.8h13.6v-54.2H156V41.8z">
  </path>
  <path class="st0" d="M203.3,22.7c0-6.4-2.4-9.5-7.3-9.5c-4.9,0-7.3,3.2-7.3,9.5c0,6.4,2.4,9.5,7.3,9.5
		C200.8,32.2,203.3,29.1,203.3,22.7z M185.1,40c-3.1-1.6-5.6-3.9-7.3-6.9c-1.7-3-2.6-6.5-2.6-10.4c0-4,0.9-7.5,2.6-10.4
		c1.7-2.9,4.1-5.2,7.2-6.8c3.1-1.6,6.8-2.4,11-2.4c4.2,0,7.8,0.8,11,2.4c3.1,1.6,5.5,3.9,7.2,6.8c1.7,2.9,2.6,6.4,2.6,10.4
		c0,4-0.9,7.5-2.6,10.4c-1.7,3-4.1,5.3-7.2,6.9c-3.1,1.6-6.8,2.4-11,2.4C191.8,42.5,188.2,41.7,185.1,40z">
  </path>
  <path class="st0" d="M248.2,28.3c1.3-1.5,2-3.6,2-6.3c0-2.7-0.7-4.8-2-6.4c-1.3-1.5-3.2-2.3-5.6-2.3c-2.4,0-4.2,0.8-5.5,2.3
		c-1.3,1.5-2,3.6-2,6.4c0,2.7,0.7,4.8,2,6.3c1.4,1.5,3.2,2.3,5.5,2.3C245,30.6,246.9,29.8,248.2,28.3z M263.6,4v33.2
		c0,6.2-1.9,11-5.6,14.2c-3.7,3.2-9.2,4.8-16.4,4.8c-3.4,0-6.7-0.4-10-1.2c-3.2-0.8-6-1.9-8.4-3.3l3.4-9.3c2.3,1.2,4.8,2.2,7.3,2.8
		c2.5,0.7,4.9,1,7.2,1c3,0,5.2-0.7,6.7-2c1.5-1.3,2.2-3.4,2.2-6.2v-2.9c-1.1,1.7-2.7,3-4.8,4c-2.1,1-4.4,1.5-6.8,1.5
		c-3.3,0-6.2-0.8-8.7-2.3c-2.6-1.5-4.5-3.7-6-6.6c-1.4-2.8-2.1-6.1-2.1-9.9c0-3.7,0.7-7,2.1-9.9c1.4-2.9,3.4-5.1,6-6.6
		c2.6-1.6,5.5-2.3,8.7-2.3c2.5,0,4.8,0.5,6.9,1.5c2.1,1,3.7,2.4,4.8,4.2V4H263.6z">
  </path>
  <path class="st0" d="M270,41.8h13.6V4H270V41.8z M269.7-2.5h14.2v-12.4h-14.2V-2.5z">
  </path>
  <path class="st0" d="M318.2,22.3l16,19.5h-15.9l-7.9-10l-7.9,10h-15.9l16-19.5L287.6,4h16l6.8,8.9l6.9-8.9h16L318.2,22.3z">
  </path>
  <path class="st0" d="M-107.9-30.7c-25,0-45.3,20.4-45.3,45.5s20.3,45.5,45.3,45.5c25,0,45.3-20.4,45.3-45.5S-82.9-30.7-107.9-30.7z
		">
  </path>
  <path class="st1" d="M-107.9-30.7c-25,0-45.3,20.4-45.3,45.5c0,25.1,20.3,45.5,45.3,45.5c25,0,45.3-20.4,45.3-45.5
		C-62.5-10.3-82.9-30.7-107.9-30.7z M-107.9,71.5c-31.2,0-56.6-25.5-56.6-56.8c0-31.3,25.4-56.8,56.6-56.8
		c31.2,0,56.6,25.5,56.6,56.8C-51.3,46.1-76.7,71.5-107.9,71.5z">
  </path>
 </g>
</svg>