<svg width="241" height="37" viewBox="0 0 241 37" fill="none" xmlns="http://www.w3.org/2000/svg">
<path d="M24.0421 15.6138C23.9722 16.0956 23.6544 16.7503 23.2899 17.3194C22.83 18.0376 22.1002 18.5406 21.2649 18.7152L17.5855 19.4846C16.9941 19.6083 16.4579 19.9178 16.0553 20.3678L13.6427 23.0645C13.1893 23.5714 12.8724 23.4505 12.8724 22.7707C12.8669 22.796 11.6751 25.8696 14.8336 27.6915C16.0473 28.3915 17.7943 28.14 19.0079 27.44L25.4383 23.7309C27.8431 22.3438 29.541 19.9972 30.1054 17.2809C30.1277 17.1734 30.145 17.0656 30.1636 16.9578L24.0421 15.6138Z" fill="url(#paint0_linear_178_147725)"/>
<path d="M22.3745 11.9086C23.5881 12.6086 24.084 13.6508 24.0839 15.0508C24.0839 15.2409 24.069 15.4287 24.0421 15.6136L26.6331 16.7266L30.1636 16.9576C30.6156 14.3413 29.7297 11.6483 28.1415 9.50775C26.9463 7.89687 25.4084 6.49893 23.5594 5.43245C22.0575 4.56612 20.4967 3.99533 18.9286 3.68213L17.1667 5.96378L16.6101 8.58371L22.3745 11.9086Z" fill="url(#paint1_linear_178_147725)"/>
<path d="M1.63564 13.8289C1.63498 13.8309 1.63681 13.8315 1.63749 13.8295C1.77345 13.4217 1.94393 12.9668 2.15676 12.4807C3.26852 9.94196 5.41094 8.24873 8.04663 7.38541C10.6823 6.5221 13.5601 6.82471 15.9623 8.21027L16.6102 8.584L18.9287 3.68242C11.5546 2.20961 4.01799 6.5419 1.64501 13.8005C1.64388 13.8039 1.63976 13.8161 1.63564 13.8289Z" fill="url(#paint2_linear_178_147725)"/>
<path d="M18.7563 27.4401C17.5426 28.1402 16.0474 28.1402 14.8338 27.4401C14.669 27.3451 14.5137 27.2383 14.3669 27.1226L12.2325 28.59L10.3928 31.5628C12.4347 33.262 15.0862 33.8083 17.7359 33.5045C19.7299 33.2759 21.7106 32.6442 23.5596 31.5777C25.0615 30.7114 26.3367 29.6464 27.3923 28.4462L26.2954 25.781L24.5206 24.1152L18.7563 27.4401Z" fill="url(#paint3_linear_178_147725)"/>
<path d="M14.3669 27.1226C13.4319 26.3861 12.8726 25.2564 12.8726 24.0464V23.9257V13.8484C12.8726 13.2785 13.0405 13.1816 13.5346 13.4666C12.7737 13.0277 11.0159 11.521 8.84556 12.7729C7.63195 13.4729 6.63257 15.0181 6.63257 16.4182V23.8363C6.63257 26.6106 8.06948 29.5044 10.1419 31.3509C10.2239 31.424 10.3088 31.4928 10.3929 31.5628L14.3669 27.1226Z" fill="url(#paint4_linear_178_147725)"/>
<path d="M27.2435 8.41089C27.242 8.40929 27.2406 8.41058 27.2421 8.41219C27.5276 8.73372 27.8367 9.10869 28.1516 9.53584C29.7964 11.7671 30.411 14.5931 29.8415 17.3052C29.272 20.0173 27.5708 22.3559 25.1687 23.7414L24.5208 24.1152L27.3924 28.4461C32.3562 22.8024 32.369 14.1156 27.2634 8.43321C27.261 8.43049 27.2526 8.42087 27.2435 8.41089Z" fill="url(#paint5_linear_178_147725)"/>
<path d="M6.88429 16.4177C6.88428 15.0177 7.6319 13.724 8.84552 13.024C9.01027 12.929 9.18053 12.848 9.35423 12.7788L9.1494 10.1984L7.71035 7.24609C5.2164 8.16313 3.19907 10.0583 2.13762 12.5027C1.33882 14.3422 0.896005 16.3719 0.895996 18.5048C0.895996 20.2375 1.1816 21.8733 1.69418 23.3866L4.55296 23.7702L6.88429 23.0675V16.4177Z" fill="url(#paint6_linear_178_147725)"/>
<path d="M9.35433 12.7787C10.4603 12.338 11.7192 12.4189 12.7681 13.0239L12.8727 13.0843L21.2699 17.9278C21.859 18.2676 21.8054 18.6019 21.1397 18.7411L21.6241 18.6398C22.2615 18.5066 22.8438 18.1808 23.2892 17.7061C24.0549 16.8899 24.336 15.9052 24.336 15.0507C24.336 13.6506 23.5884 12.357 22.3747 11.6569L15.9443 7.94786C13.5395 6.56074 10.6564 6.26496 8.01958 7.13484C7.91527 7.16924 7.81316 7.20826 7.71045 7.24602L9.35433 12.7787Z" fill="url(#paint7_linear_178_147725)"/>
<path d="M19.1363 33.2757C19.1384 33.2753 19.138 33.2734 19.1359 33.2738C18.7144 33.3601 18.2348 33.4401 17.7071 33.4989C14.9505 33.8064 12.1935 32.9252 10.1272 31.0764C8.06104 29.2277 6.88445 26.5864 6.88445 23.8153L6.88444 23.0679L1.69434 23.387C4.10469 30.5035 11.6284 34.858 19.1069 33.2818C19.1105 33.2811 19.1231 33.2786 19.1363 33.2757Z" fill="url(#paint8_linear_178_147725)"/>
<path d="M45.7216 27.5V10.0455H56.9034V12.696H48.8835V17.4347H56.1364V20.0852H48.8835V27.5H45.7216ZM62.733 10.0455V27.5H59.6477V10.0455H62.733ZM71.6158 27.7557C70.3374 27.7557 69.2294 27.4744 68.2919 26.9119C67.3544 26.3494 66.6271 25.5625 66.1101 24.5511C65.5987 23.5398 65.343 22.358 65.343 21.0057C65.343 19.6534 65.5987 18.4687 66.1101 17.4517C66.6271 16.4347 67.3544 15.6449 68.2919 15.0824C69.2294 14.5199 70.3374 14.2386 71.6158 14.2386C72.8942 14.2386 74.0021 14.5199 74.9396 15.0824C75.8771 15.6449 76.6016 16.4347 77.1129 17.4517C77.63 18.4687 77.8885 19.6534 77.8885 21.0057C77.8885 22.358 77.63 23.5398 77.1129 24.5511C76.6016 25.5625 75.8771 26.3494 74.9396 26.9119C74.0021 27.4744 72.8942 27.7557 71.6158 27.7557ZM71.6328 25.2841C72.326 25.2841 72.9055 25.0937 73.3714 24.7131C73.8374 24.3267 74.1839 23.8097 74.4112 23.1619C74.6442 22.5142 74.7607 21.7926 74.7607 20.9972C74.7607 20.196 74.6442 19.4716 74.4112 18.8239C74.1839 18.1705 73.8374 17.6506 73.3714 17.2642C72.9055 16.8778 72.326 16.6847 71.6328 16.6847C70.9226 16.6847 70.3317 16.8778 69.8601 17.2642C69.3942 17.6506 69.0447 18.1705 68.8118 18.8239C68.5845 19.4716 68.4709 20.196 68.4709 20.9972C68.4709 21.7926 68.5845 22.5142 68.8118 23.1619C69.0447 23.8097 69.3942 24.3267 69.8601 24.7131C70.3317 25.0937 70.9226 25.2841 71.6328 25.2841ZM82.8338 27.5L79.1349 14.4091H82.2798L84.581 23.6136H84.7003L87.0526 14.4091H90.1634L92.5156 23.5625H92.6435L94.9105 14.4091H98.0639L94.3565 27.5H91.1435L88.6889 18.6534H88.5099L86.0554 27.5H82.8338ZM100.354 27.5V10.0455H103.44V16.5739H103.567C103.727 16.2557 103.951 15.9176 104.241 15.5597C104.531 15.196 104.923 14.8864 105.417 14.6307C105.911 14.3693 106.542 14.2386 107.309 14.2386C108.32 14.2386 109.232 14.4972 110.045 15.0142C110.863 15.5256 111.511 16.2841 111.988 17.2898C112.471 18.2898 112.712 19.517 112.712 20.9716C112.712 22.4091 112.477 23.6307 112.005 24.6364C111.533 25.642 110.891 26.4091 110.079 26.9375C109.266 27.4659 108.346 27.7301 107.317 27.7301C106.567 27.7301 105.945 27.6051 105.451 27.3551C104.957 27.1051 104.559 26.804 104.258 26.4517C103.962 26.0937 103.732 25.7557 103.567 25.4375H103.388V27.5H100.354ZM103.38 20.9545C103.38 21.8011 103.499 22.5426 103.738 23.179C103.982 23.8153 104.332 24.3125 104.786 24.6705C105.246 25.0227 105.803 25.1989 106.457 25.1989C107.138 25.1989 107.71 25.017 108.17 24.6534C108.63 24.2841 108.977 23.7812 109.21 23.1449C109.448 22.5028 109.567 21.7727 109.567 20.9545C109.567 20.142 109.451 19.4205 109.218 18.7898C108.985 18.1591 108.638 17.6648 108.178 17.3068C107.718 16.9489 107.144 16.7699 106.457 16.7699C105.798 16.7699 105.238 16.9432 104.778 17.2898C104.317 17.6364 103.968 18.1222 103.729 18.7472C103.496 19.3722 103.38 20.108 103.38 20.9545ZM115.335 27.5V14.4091H118.42V27.5H115.335ZM116.886 12.5511C116.398 12.5511 115.977 12.3892 115.625 12.0653C115.273 11.7358 115.097 11.3409 115.097 10.8807C115.097 10.4148 115.273 10.0199 115.625 9.69602C115.977 9.36648 116.398 9.2017 116.886 9.2017C117.381 9.2017 117.801 9.36648 118.148 9.69602C118.5 10.0199 118.676 10.4148 118.676 10.8807C118.676 11.3409 118.5 11.7358 118.148 12.0653C117.801 12.3892 117.381 12.5511 116.886 12.5511ZM128.13 14.4091V16.7955H120.604V14.4091H128.13ZM122.462 11.2727H125.548V23.5625C125.548 23.9773 125.61 24.2955 125.735 24.517C125.866 24.733 126.036 24.8807 126.246 24.9602C126.457 25.0398 126.69 25.0795 126.945 25.0795C127.138 25.0795 127.315 25.0653 127.474 25.0369C127.638 25.0085 127.763 24.983 127.849 24.9602L128.369 27.3722C128.204 27.429 127.968 27.4915 127.661 27.5597C127.36 27.6278 126.991 27.6676 126.553 27.679C125.781 27.7017 125.085 27.5852 124.465 27.3295C123.846 27.0682 123.354 26.6648 122.991 26.1193C122.633 25.5739 122.457 24.892 122.462 24.0739V11.2727ZM136.365 27.7557C135.053 27.7557 133.919 27.483 132.964 26.9375C132.016 26.3864 131.286 25.608 130.774 24.6023C130.263 23.5909 130.007 22.4006 130.007 21.0312C130.007 19.6847 130.263 18.5028 130.774 17.4858C131.291 16.4631 132.013 15.6676 132.939 15.0994C133.865 14.5256 134.953 14.2386 136.203 14.2386C137.01 14.2386 137.771 14.3693 138.487 14.6307C139.209 14.8864 139.845 15.2841 140.396 15.8239C140.953 16.3636 141.391 17.0511 141.709 17.8864C142.027 18.7159 142.186 19.7045 142.186 20.8523V21.7983H131.456V19.7188H139.229C139.223 19.1278 139.095 18.6023 138.845 18.142C138.595 17.6761 138.246 17.3097 137.797 17.0426C137.354 16.7756 136.837 16.642 136.246 16.642C135.615 16.642 135.061 16.7955 134.584 17.1023C134.107 17.4034 133.734 17.8011 133.467 18.2955C133.206 18.7841 133.072 19.321 133.067 19.9062V21.7216C133.067 22.483 133.206 23.1364 133.484 23.6818C133.763 24.2216 134.152 24.6364 134.652 24.9261C135.152 25.2102 135.737 25.3523 136.408 25.3523C136.857 25.3523 137.263 25.2898 137.626 25.1648C137.99 25.0341 138.305 24.8438 138.572 24.5938C138.839 24.3438 139.041 24.0341 139.178 23.6648L142.058 23.9886C141.876 24.75 141.53 25.4148 141.018 25.983C140.513 26.5455 139.865 26.983 139.075 27.2955C138.286 27.6023 137.382 27.7557 136.365 27.7557ZM153.127 27.5H149.752L155.897 10.0455H159.8L165.954 27.5H162.579L157.917 13.625H157.781L153.127 27.5ZM153.238 20.6562H162.442V23.196H153.238V20.6562ZM171.202 19.8295V27.5H168.116V14.4091H171.065V16.6335H171.219C171.52 15.9006 172 15.3182 172.659 14.8864C173.324 14.4545 174.145 14.2386 175.122 14.2386C176.026 14.2386 176.813 14.4318 177.483 14.8182C178.159 15.2045 178.682 15.7642 179.051 16.4972C179.426 17.2301 179.611 18.1193 179.605 19.1648V27.5H176.52V19.642C176.52 18.767 176.293 18.0824 175.838 17.5881C175.389 17.0937 174.767 16.8466 173.972 16.8466C173.432 16.8466 172.952 16.9659 172.531 17.2045C172.116 17.4375 171.79 17.7756 171.551 18.2188C171.318 18.6619 171.202 19.1989 171.202 19.8295ZM188.435 32.6818C187.327 32.6818 186.375 32.5313 185.58 32.2301C184.784 31.9347 184.145 31.5369 183.662 31.0369C183.179 30.5369 182.844 29.983 182.656 29.375L185.435 28.7017C185.56 28.9574 185.741 29.2102 185.98 29.4602C186.219 29.7159 186.54 29.9261 186.943 30.0909C187.352 30.2614 187.866 30.3466 188.486 30.3466C189.361 30.3466 190.085 30.1335 190.659 29.7074C191.233 29.2869 191.52 28.5938 191.52 27.6278V25.1477H191.366C191.207 25.4659 190.974 25.7926 190.668 26.1278C190.366 26.4631 189.966 26.7443 189.466 26.9716C188.972 27.1989 188.349 27.3125 187.599 27.3125C186.594 27.3125 185.682 27.0767 184.864 26.6051C184.051 26.1278 183.403 25.4176 182.92 24.4744C182.443 23.5256 182.205 22.3381 182.205 20.9119C182.205 19.4744 182.443 18.2614 182.92 17.2727C183.403 16.2784 184.054 15.5256 184.872 15.0142C185.69 14.4972 186.602 14.2386 187.608 14.2386C188.375 14.2386 189.006 14.3693 189.5 14.6307C190 14.8864 190.398 15.196 190.693 15.5597C190.989 15.9176 191.213 16.2557 191.366 16.5739H191.537V14.4091H194.58V27.7131C194.58 28.8324 194.313 29.7585 193.778 30.4915C193.244 31.2244 192.514 31.7727 191.588 32.1364C190.662 32.5 189.611 32.6818 188.435 32.6818ZM188.46 24.892C189.114 24.892 189.67 24.733 190.131 24.4148C190.591 24.0966 190.94 23.6392 191.179 23.0426C191.418 22.446 191.537 21.7301 191.537 20.8949C191.537 20.071 191.418 19.3494 191.179 18.7301C190.946 18.1108 190.599 17.6307 190.139 17.2898C189.685 16.9432 189.125 16.7699 188.46 16.7699C187.773 16.7699 187.199 16.9489 186.739 17.3068C186.278 17.6648 185.932 18.1562 185.699 18.7812C185.466 19.4006 185.349 20.1051 185.349 20.8949C185.349 21.696 185.466 22.3977 185.699 23C185.938 23.5966 186.287 24.0625 186.747 24.3977C187.213 24.7273 187.784 24.892 188.46 24.892ZM206.085 21.9943V14.4091H209.17V27.5H206.179V25.1733H206.043C205.747 25.9062 205.261 26.5057 204.585 26.9716C203.915 27.4375 203.088 27.6705 202.105 27.6705C201.247 27.6705 200.489 27.4801 199.83 27.0994C199.176 26.7131 198.665 26.1534 198.295 25.4205C197.926 24.6818 197.741 23.7898 197.741 22.7443V14.4091H200.827V22.267C200.827 23.0966 201.054 23.7557 201.509 24.2443C201.963 24.733 202.56 24.9773 203.298 24.9773C203.753 24.9773 204.193 24.8665 204.619 24.6449C205.045 24.4233 205.395 24.0938 205.668 23.6562C205.946 23.2131 206.085 22.6591 206.085 21.9943ZM215.428 10.0455V27.5H212.343V10.0455H215.428ZM222.368 27.7642C221.538 27.7642 220.791 27.6165 220.126 27.321C219.467 27.0199 218.945 26.5767 218.558 25.9915C218.178 25.4062 217.987 24.6847 217.987 23.8267C217.987 23.0881 218.124 22.4773 218.396 21.9943C218.669 21.5114 219.041 21.125 219.513 20.8352C219.984 20.5455 220.516 20.3267 221.107 20.179C221.703 20.0256 222.32 19.9148 222.956 19.8466C223.723 19.767 224.345 19.696 224.822 19.6335C225.3 19.5653 225.646 19.4631 225.862 19.3267C226.084 19.1847 226.195 18.9659 226.195 18.6705V18.6193C226.195 17.9773 226.004 17.4801 225.624 17.1278C225.243 16.7756 224.695 16.5994 223.979 16.5994C223.223 16.5994 222.624 16.7642 222.18 17.0938C221.743 17.4233 221.447 17.8125 221.294 18.2614L218.413 17.8523C218.641 17.0568 219.016 16.392 219.538 15.858C220.061 15.3182 220.7 14.9148 221.456 14.6477C222.212 14.375 223.047 14.2386 223.962 14.2386C224.592 14.2386 225.22 14.3125 225.845 14.4602C226.47 14.608 227.041 14.8523 227.558 15.1932C228.075 15.5284 228.49 15.9858 228.803 16.5653C229.121 17.1449 229.28 17.8693 229.28 18.7386V27.5H226.314V25.7017H226.212C226.024 26.0653 225.76 26.4062 225.419 26.7244C225.084 27.0369 224.661 27.2898 224.149 27.483C223.643 27.6705 223.05 27.7642 222.368 27.7642ZM223.169 25.4972C223.788 25.4972 224.325 25.375 224.78 25.1307C225.234 24.8807 225.584 24.5511 225.828 24.142C226.078 23.733 226.203 23.2869 226.203 22.804V21.2614C226.107 21.3409 225.942 21.4148 225.709 21.483C225.482 21.5511 225.226 21.6108 224.942 21.6619C224.658 21.7131 224.376 21.7585 224.098 21.7983C223.82 21.8381 223.578 21.8722 223.374 21.9006C222.913 21.9631 222.501 22.0653 222.138 22.2074C221.774 22.3494 221.487 22.5483 221.277 22.804C221.067 23.054 220.962 23.3778 220.962 23.7756C220.962 24.3438 221.169 24.7727 221.584 25.0625C221.999 25.3523 222.527 25.4972 223.169 25.4972ZM232.382 27.5V14.4091H235.374V16.5909H235.51C235.749 15.8352 236.158 15.2528 236.737 14.8438C237.322 14.429 237.99 14.2216 238.74 14.2216C238.911 14.2216 239.101 14.2301 239.311 14.2472C239.527 14.2585 239.706 14.2784 239.848 14.3068V17.1449C239.717 17.0994 239.51 17.0597 239.226 17.0256C238.947 16.9858 238.678 16.9659 238.416 16.9659C237.854 16.9659 237.348 17.0881 236.899 17.3324C236.456 17.571 236.107 17.9034 235.851 18.3295C235.595 18.7557 235.467 19.2472 235.467 19.804V27.5H232.382Z" fill="#ffffff"/>
<defs>
<linearGradient id="paint0_linear_178_147725" x1="19.8324" y1="25.8347" x2="22.8037" y2="15.4855" gradientUnits="userSpaceOnUse">
<stop stop-color="#B00132"/>
<stop offset="1" stop-color="#E61749"/>
</linearGradient>
<linearGradient id="paint1_linear_178_147725" x1="26.6758" y1="13.2136" x2="18.8598" y2="5.42512" gradientUnits="userSpaceOnUse">
<stop stop-color="#E51648"/>
<stop offset="1" stop-color="#FF1C53"/>
</linearGradient>
<linearGradient id="paint2_linear_178_147725" x1="16.1551" y1="8.13595" x2="4.36447" y2="8.881" gradientUnits="userSpaceOnUse">
<stop stop-color="#FF1C53"/>
<stop offset="1" stop-color="#F21A4F"/>
</linearGradient>
<linearGradient id="paint3_linear_178_147725" x1="15.3578" y1="30.4536" x2="25.9464" y2="27.5963" gradientUnits="userSpaceOnUse">
<stop stop-color="#EC164A"/>
<stop offset="1" stop-color="#E31546"/>
</linearGradient>
<linearGradient id="paint4_linear_178_147725" x1="7.75773" y1="18.2005" x2="15.2754" y2="25.9904" gradientUnits="userSpaceOnUse">
<stop stop-color="#B00132"/>
<stop offset="1" stop-color="#ED174B"/>
</linearGradient>
<linearGradient id="paint5_linear_178_147725" x1="24.9213" y1="23.82" x2="30.1666" y2="13.2462" gradientUnits="userSpaceOnUse">
<stop stop-color="#E31546"/>
<stop offset="1" stop-color="#E31546"/>
</linearGradient>
<linearGradient id="paint6_linear_178_147725" x1="5.95947" y1="12.0152" x2="3.15266" y2="22.565" gradientUnits="userSpaceOnUse">
<stop stop-color="#E11345"/>
<stop offset="1" stop-color="#F2194E"/>
</linearGradient>
<linearGradient id="paint7_linear_178_147725" x1="20.2887" y1="11.5134" x2="10.0318" y2="14.0671" gradientUnits="userSpaceOnUse">
<stop stop-color="#B00132"/>
<stop offset="1" stop-color="#E11345"/>
</linearGradient>
<linearGradient id="paint8_linear_178_147725" x1="6.94411" y1="23.5566" x2="13.482" y2="33.3911" gradientUnits="userSpaceOnUse">
<stop stop-color="#F2194E"/>
<stop offset="1" stop-color="#F21A4F"/>
</linearGradient>
</defs>
</svg>
