<svg xmlns="http://www.w3.org/2000/svg" width="214" height="54" viewBox="0 0 214 54" fill="none">
<path d="M37.336 22.414C37.2248 23.1797 36.7199 24.2199 36.1407 25.1243C35.4099 26.2654 34.2502 27.0647 32.923 27.3422L27.0764 28.5648C26.1368 28.7613 25.2847 29.2531 24.6449 29.9682L20.8114 34.2532C20.091 35.0585 19.5874 34.8665 19.5874 33.7864C19.5787 33.8264 17.6848 38.7105 22.7038 41.6054C24.6322 42.7177 27.4082 42.3181 29.3366 41.2058L39.5544 35.3121C43.3756 33.108 46.0736 29.3793 46.9704 25.063C47.0059 24.8923 47.0333 24.7209 47.0629 24.5497L37.336 22.414Z" fill="url(#paint0_linear_1_378)"/>
<path d="M34.6861 16.5269C36.6145 17.6392 37.4025 19.2952 37.4024 21.5198C37.4024 21.8218 37.3787 22.1202 37.336 22.414L41.4531 24.1826L47.0629 24.5497C47.7812 20.3924 46.3735 16.1133 43.8499 12.7119C41.9507 10.1523 39.5069 7.93098 36.569 6.23634C34.1824 4.85976 31.7024 3.95278 29.2106 3.45511L26.411 7.08062L25.5266 11.2437L34.6861 16.5269Z" fill="url(#paint1_linear_1_378)"/>
<path d="M1.73204 19.5777C1.73099 19.581 1.73389 19.5819 1.73498 19.5787C1.95102 18.9307 2.22191 18.2078 2.5601 17.4355C4.32666 13.4015 7.73093 10.7109 11.919 9.33912C16.1071 7.96734 20.6799 8.44819 24.4969 10.6498L25.5264 11.2437L29.2104 3.45512C17.4931 1.11485 5.51756 7.9988 1.74693 19.5326C1.74513 19.5381 1.73858 19.5573 1.73204 19.5777Z" fill="url(#paint2_linear_1_378)"/>
<path d="M28.9364 41.2057C27.0079 42.318 24.632 42.318 22.7036 41.2057C22.4418 41.0547 22.195 40.885 21.9617 40.7011L18.5701 43.0329L15.647 47.7565C18.8915 50.4566 23.1047 51.3247 27.315 50.8419C30.4834 50.4786 33.6308 49.4749 36.5688 47.7803C38.9553 46.4037 40.9816 44.7114 42.6589 42.8043L40.9159 38.5693L38.0958 35.9225L28.9364 41.2057Z" fill="url(#paint3_linear_1_378)"/>
<path d="M21.9617 40.7011C20.4759 39.5308 19.5872 37.7358 19.5872 35.8131V35.6214V19.6086C19.5872 18.703 19.8541 18.5491 20.639 19.0019C19.43 18.3045 16.6369 15.9105 13.1883 17.8997C11.2599 19.012 9.67188 21.4673 9.67188 23.6919V35.4793C9.67188 39.8875 11.9551 44.4859 15.2482 47.4199C15.3785 47.5359 15.5134 47.6453 15.647 47.7565L21.9617 40.7011Z" fill="url(#paint4_linear_1_378)"/>
<path d="M42.4222 10.9686C42.4199 10.966 42.4177 10.9681 42.4199 10.9706C42.8736 11.4815 43.3648 12.0774 43.8652 12.7561C46.4788 16.3016 47.4554 20.7921 46.5505 25.1015C45.6456 29.411 42.9423 33.127 39.1254 35.3286L38.0958 35.9225L42.6589 42.8043C50.5462 33.8365 50.5666 20.0333 42.4539 11.004C42.45 10.9997 42.4366 10.9844 42.4222 10.9686Z" fill="url(#paint5_linear_1_378)"/>
<path d="M10.072 23.692C10.0719 21.4673 11.2599 19.4117 13.1883 18.2994C13.4501 18.1484 13.7206 18.0198 13.9967 17.9097L13.6712 13.8095L11.3846 9.11838C7.4217 10.5755 4.21619 13.5869 2.52956 17.4711C1.26029 20.3941 0.556655 23.6191 0.556641 27.0083C0.556641 29.7615 1.01046 32.3608 1.82494 34.7655L6.36751 35.375L10.072 34.2585V23.692Z" fill="url(#paint6_linear_1_378)"/>
<path d="M13.9968 17.9097C15.7541 17.2094 17.7545 17.3381 19.4211 18.2994L19.5874 18.3952L32.9304 26.0916C33.8664 26.6315 33.7814 27.1627 32.7235 27.3839L33.4932 27.223C34.506 27.0112 35.4314 26.4936 36.139 25.7393C37.3557 24.4424 37.8024 22.8777 37.8024 21.5198C37.8024 19.2952 36.6144 17.2396 34.686 16.1273L24.4682 10.2336C20.6469 8.02947 16.0657 7.55947 11.8758 8.9417C11.7101 8.99637 11.5479 9.05836 11.3846 9.11838L13.9968 17.9097Z" fill="url(#paint7_linear_1_378)"/>
<path d="M29.5399 50.4786C29.5433 50.4779 29.5427 50.4749 29.5393 50.4756C28.8696 50.6127 28.1075 50.7397 27.269 50.8333C22.8888 51.3219 18.5079 49.9216 15.2247 46.9839C11.9416 44.0463 10.072 39.8494 10.072 35.4462L10.072 34.2585L1.82495 34.7655C5.65497 46.0735 17.61 52.9928 29.4934 50.4883C29.499 50.4871 29.519 50.4832 29.5399 50.4786Z" fill="url(#paint8_linear_1_378)"/>
<path d="M67.139 40V13.8182H83.9118V17.794H71.8819V24.902H82.7612V28.8778H71.8819V40H67.139ZM92.6561 13.8182V40H88.0282V13.8182H92.6561ZM105.98 40.3835C104.063 40.3835 102.401 39.9616 100.994 39.1179C99.5882 38.2741 98.4973 37.0937 97.7218 35.5767C96.9547 34.0597 96.5712 32.2869 96.5712 30.2585C96.5712 28.2301 96.9547 26.4531 97.7218 24.9276C98.4973 23.402 99.5882 22.2173 100.994 21.3736C102.401 20.5298 104.063 20.108 105.98 20.108C107.898 20.108 109.56 20.5298 110.966 21.3736C112.372 22.2173 113.459 23.402 114.226 24.9276C115.002 26.4531 115.389 28.2301 115.389 30.2585C115.389 32.2869 115.002 34.0597 114.226 35.5767C113.459 37.0937 112.372 38.2741 110.966 39.1179C109.56 39.9616 107.898 40.3835 105.98 40.3835ZM106.006 36.6761C107.046 36.6761 107.915 36.3906 108.614 35.8196C109.313 35.2401 109.833 34.4645 110.173 33.4929C110.523 32.5213 110.698 31.4389 110.698 30.2457C110.698 29.044 110.523 27.9574 110.173 26.9858C109.833 26.0057 109.313 25.2259 108.614 24.6463C107.915 24.0668 107.046 23.777 106.006 23.777C104.941 23.777 104.054 24.0668 103.347 24.6463C102.648 25.2259 102.124 26.0057 101.774 26.9858C101.433 27.9574 101.263 29.044 101.263 30.2457C101.263 31.4389 101.433 32.5213 101.774 33.4929C102.124 34.4645 102.648 35.2401 103.347 35.8196C104.054 36.3906 104.941 36.6761 106.006 36.6761ZM122.807 40L117.259 20.3636H121.976L125.428 34.1705H125.607L129.135 20.3636H133.802L137.33 34.0938H137.522L140.922 20.3636H145.653L140.091 40H135.272L131.59 26.7301H131.322L127.64 40H122.807ZM149.088 40V13.8182H153.716V23.6108H153.908C154.146 23.1335 154.483 22.6264 154.918 22.0895C155.352 21.544 155.941 21.0795 156.682 20.696C157.423 20.304 158.369 20.108 159.52 20.108C161.037 20.108 162.405 20.4957 163.624 21.2713C164.851 22.0384 165.823 23.1761 166.539 24.6847C167.263 26.1847 167.625 28.0256 167.625 30.2074C167.625 32.3636 167.271 34.196 166.564 35.7045C165.857 37.2131 164.894 38.3636 163.675 39.1562C162.456 39.9489 161.075 40.3452 159.533 40.3452C158.408 40.3452 157.475 40.1577 156.733 39.7827C155.992 39.4077 155.395 38.956 154.943 38.4276C154.5 37.8906 154.155 37.3835 153.908 36.9062H153.639V40H149.088ZM153.627 30.1818C153.627 31.4517 153.806 32.5639 154.164 33.5185C154.53 34.473 155.054 35.2187 155.736 35.7557C156.426 36.2841 157.262 36.5483 158.242 36.5483C159.264 36.5483 160.121 36.2756 160.811 35.7301C161.502 35.1761 162.021 34.4219 162.371 33.4673C162.729 32.5043 162.908 31.4091 162.908 30.1818C162.908 28.9631 162.733 27.8807 162.384 26.9347C162.034 25.9886 161.514 25.2472 160.824 24.7102C160.134 24.1733 159.273 23.9048 158.242 23.9048C157.253 23.9048 156.414 24.1648 155.723 24.6847C155.033 25.2045 154.509 25.9332 154.151 26.8707C153.801 27.8082 153.627 28.9119 153.627 30.1818ZM171.559 40V20.3636H176.187V40H171.559ZM173.886 17.5767C173.153 17.5767 172.523 17.3338 171.994 16.848C171.466 16.3537 171.202 15.7614 171.202 15.071C171.202 14.3722 171.466 13.7798 171.994 13.294C172.523 12.7997 173.153 12.5526 173.886 12.5526C174.628 12.5526 175.258 12.7997 175.778 13.294C176.307 13.7798 176.571 14.3722 176.571 15.071C176.571 15.7614 176.307 16.3537 175.778 16.848C175.258 17.3338 174.628 17.5767 173.886 17.5767ZM190.752 20.3636V23.9432H179.463V20.3636H190.752ZM182.25 15.6591H186.878V34.0938C186.878 34.7159 186.972 35.1932 187.159 35.5256C187.355 35.8494 187.611 36.071 187.926 36.1903C188.242 36.3097 188.591 36.3693 188.975 36.3693C189.264 36.3693 189.529 36.348 189.767 36.3054C190.014 36.2628 190.202 36.2244 190.33 36.1903L191.11 39.8082C190.862 39.8935 190.509 39.9872 190.048 40.0895C189.597 40.1918 189.043 40.2514 188.387 40.2685C187.227 40.3026 186.183 40.1278 185.254 39.7443C184.325 39.3523 183.588 38.7472 183.043 37.929C182.506 37.1108 182.242 36.0881 182.25 34.8608V15.6591ZM203.104 40.3835C201.135 40.3835 199.435 39.9744 198.003 39.1562C196.58 38.3295 195.485 37.1619 194.718 35.6534C193.951 34.1364 193.567 32.3509 193.567 30.2969C193.567 28.277 193.951 26.5043 194.718 24.9787C195.493 23.4446 196.576 22.2514 197.965 21.3991C199.354 20.5384 200.986 20.108 202.861 20.108C204.072 20.108 205.214 20.304 206.287 20.696C207.37 21.0795 208.324 21.6761 209.151 22.4858C209.986 23.2955 210.643 24.3267 211.12 25.5795C211.597 26.8239 211.836 28.3068 211.836 30.0284V31.4474H195.741V28.3281H207.4C207.391 27.4418 207.199 26.6534 206.824 25.9631C206.449 25.2642 205.925 24.7145 205.252 24.3139C204.587 23.9134 203.812 23.7131 202.925 23.7131C201.979 23.7131 201.148 23.9432 200.432 24.4034C199.716 24.8551 199.158 25.4517 198.758 26.1932C198.366 26.9261 198.165 27.7315 198.157 28.6094V31.3324C198.157 32.4744 198.366 33.4545 198.783 34.2727C199.201 35.0824 199.785 35.7045 200.535 36.1392C201.285 36.5653 202.162 36.7784 203.168 36.7784C203.841 36.7784 204.451 36.6847 204.996 36.4972C205.542 36.3011 206.015 36.0156 206.415 35.6406C206.816 35.2656 207.118 34.8011 207.323 34.2472L211.644 34.733C211.371 35.875 210.851 36.8722 210.084 37.7244C209.326 38.5682 208.354 39.2244 207.17 39.6932C205.985 40.1534 204.63 40.3835 203.104 40.3835Z" fill="white"/>
<defs>
<linearGradient id="paint0_linear_1_378" x1="30.6468" y1="38.6549" x2="35.3681" y2="22.2102" gradientUnits="userSpaceOnUse">
<stop stop-color="#1724C9"/>
<stop offset="1" stop-color="#1C64F2"/>
</linearGradient>
<linearGradient id="paint1_linear_1_378" x1="41.5208" y1="18.6005" x2="29.1014" y2="6.22471" gradientUnits="userSpaceOnUse">
<stop stop-color="#1C64F2"/>
<stop offset="1" stop-color="#0092FF"/>
</linearGradient>
<linearGradient id="paint2_linear_1_378" x1="24.8033" y1="10.5317" x2="6.06811" y2="11.7156" gradientUnits="userSpaceOnUse">
<stop stop-color="#0092FF"/>
<stop offset="1" stop-color="#45B2FF"/>
</linearGradient>
<linearGradient id="paint3_linear_1_378" x1="23.5362" y1="45.994" x2="40.3615" y2="41.4539" gradientUnits="userSpaceOnUse">
<stop stop-color="#1C64F2"/>
<stop offset="1" stop-color="#0092FF"/>
</linearGradient>
<linearGradient id="paint4_linear_1_378" x1="11.4597" y1="26.524" x2="23.4052" y2="38.9021" gradientUnits="userSpaceOnUse">
<stop stop-color="#1724C9"/>
<stop offset="1" stop-color="#1C64F2"/>
</linearGradient>
<linearGradient id="paint5_linear_1_378" x1="38.7322" y1="35.4535" x2="47.0669" y2="18.6518" gradientUnits="userSpaceOnUse">
<stop stop-color="#0092FF"/>
<stop offset="1" stop-color="#45B2FF"/>
</linearGradient>
<linearGradient id="paint6_linear_1_378" x1="8.60244" y1="16.6965" x2="4.14244" y2="33.4598" gradientUnits="userSpaceOnUse">
<stop stop-color="#1C64F2"/>
<stop offset="1" stop-color="#0092FF"/>
</linearGradient>
<linearGradient id="paint7_linear_1_378" x1="31.3713" y1="15.8991" x2="15.0732" y2="19.957" gradientUnits="userSpaceOnUse">
<stop stop-color="#1724C9"/>
<stop offset="1" stop-color="#1C64F2"/>
</linearGradient>
<linearGradient id="paint8_linear_1_378" x1="10.1668" y1="35.035" x2="20.5554" y2="50.662" gradientUnits="userSpaceOnUse">
<stop stop-color="#0092FF"/>
<stop offset="1" stop-color="#45B2FF"/>
</linearGradient>
</defs>
</svg>
