<svg width="228" height="60" viewBox="0 0 228 60" fill="none" xmlns="http://www.w3.org/2000/svg">
<path d="M49.6113 23.3193L28.4346 59.999L8.77637 48.6504L11.7656 43.4727L19.6572 48.0293L37.8447 16.5264L49.6113 23.3193ZM40.834 11.3496L37.8447 16.5264L29.9541 11.9707L11.7656 43.4727L0 36.6797L21.1768 0L40.834 11.3496Z" fill="url(#paint0_linear_4869_82317)"/>
<path d="M55.2734 26.8768L61.8931 26.589C62.1809 32.2301 66.2678 34.7629 71.3333 34.7629C75.8232 34.7629 78.7013 32.9784 78.7013 29.9276C78.7013 27.1646 76.514 26.1285 72.7148 25.3802L65.8073 24.1138C60.1662 23.0777 56.2519 19.9693 56.2519 13.9828C56.2519 7.19042 61.6053 2.81567 70.0669 2.81567C79.5648 2.81567 84.9181 7.70848 85.0332 15.7672L78.4135 15.9975C78.1833 11.0471 74.9598 8.45679 70.0094 8.45679C65.7498 8.45679 63.3321 10.3564 63.3321 13.4647C63.3321 16.1126 65.2317 17.0336 68.5128 17.6668L75.19 18.8756C82.3278 20.1996 85.6664 23.5957 85.6664 29.4671C85.6664 36.6049 79.5072 40.4616 71.3333 40.4616C62.0082 40.4616 55.2734 35.6263 55.2734 26.8768Z" fill="black"/>
<path d="M87.8637 14.3857H94.7712V39.7708H87.8637V14.3857ZM87.7485 10.2412V3.50641H94.8287V10.2412H87.7485Z" fill="black"/>
<path d="M117.031 27.5676V26.589C117.031 21.984 114.21 19.1059 110.296 19.1059C105.979 19.1059 103.734 22.2718 103.734 27.1071C103.734 31.8847 105.979 35.0507 110.296 35.0507C114.21 35.0507 117.031 32.2301 117.031 27.5676ZM116.973 39.7708V34.9356C115.822 37.9864 112.714 40.4616 108.224 40.4616C100.683 40.4616 96.7688 34.5902 96.7688 27.1071C96.7688 19.6239 100.683 13.695 108.224 13.695C112.714 13.695 115.822 16.1702 116.973 19.2786V3.50641H123.881V39.7708H116.973Z" fill="black"/>
<path d="M145.979 30.9062L151.562 31.4818C150.239 37.1229 145.864 40.4616 139.359 40.4616C131.531 40.4616 125.89 35.4536 125.89 27.4524C125.89 19.4512 131.588 13.695 139.187 13.695C147.476 13.695 151.735 19.4512 151.735 26.3587V28.8339H132.682C132.912 32.5755 135.848 35.2234 139.589 35.2234C142.986 35.2234 145 33.7843 145.979 30.9062ZM132.797 24.5167H145C144.77 21.5811 142.986 18.7605 139.129 18.7605C135.33 18.7605 133.43 21.3508 132.797 24.5167Z" fill="black"/>
<path d="M160.715 26.589V27.5676C160.715 32.2301 163.478 35.0507 167.392 35.0507C171.767 35.0507 174.012 31.8847 174.012 27.1071C174.012 22.2718 171.767 19.1059 167.392 19.1059C163.478 19.1059 160.715 21.984 160.715 26.589ZM160.427 34.878L159.161 39.7708H153.865V3.50641H160.772V19.2786C161.924 16.1702 164.975 13.695 169.522 13.695C177.005 13.695 180.977 19.6239 180.977 27.1071C180.977 34.5902 177.005 40.4616 169.407 40.4616C164.975 40.4616 161.751 38.0439 160.427 34.878Z" fill="black"/>
<path d="M198.296 28.7764V28.1432L193.518 29.1793C190.525 29.8125 188.395 30.3306 188.395 32.8633C188.395 34.5902 189.719 35.6263 191.907 35.6263C195.533 35.6263 198.296 32.8633 198.296 28.7764ZM205.031 23.4806V33.6116C205.031 34.9356 205.722 35.5687 206.815 35.5687C207.506 35.5687 208.197 35.3961 208.945 35.0507V38.7347C207.851 39.5981 206.47 40.3464 204.167 40.3464C201.289 40.3464 199.447 38.6771 198.814 35.9141C197.375 38.8498 193.921 40.404 190.18 40.404C184.884 40.404 181.66 37.7561 181.66 33.3814C181.66 28.5461 185.575 26.5314 191.331 25.3802L198.296 23.9987V23.4231C198.296 20.6025 196.799 18.8756 193.864 18.8756C190.986 18.8756 189.431 20.6025 188.856 23.0777L182.581 22.5021C183.445 17.3214 187.417 13.695 194.152 13.695C200.714 13.695 205.031 16.8034 205.031 23.4806Z" fill="black"/>
<path d="M227.471 14.7311L226.953 21.1781C225.629 20.4298 224.478 20.0844 222.808 20.0844C219.239 20.0844 216.822 22.6172 216.822 27.2222V39.7708H209.914V14.3857H216.822V19.221C217.743 16.3429 220.391 13.695 223.902 13.695C225.456 13.695 226.722 14.0979 227.471 14.7311Z" fill="black"/>
<path d="M158.715 53.5272C158.715 55.0999 157.518 56.0233 155.397 56.0233H151.126V46.9335H155.166C157.46 46.9335 158.441 47.9146 158.441 49.4007C158.441 50.4251 157.748 51.1465 156.767 51.3052C157.864 51.5072 158.715 52.2286 158.715 53.5272ZM155.195 52.0844H152.886V54.566H155.195C156.32 54.566 156.868 54.0899 156.868 53.3396C156.868 52.5749 156.32 52.0844 155.195 52.0844ZM152.886 48.3907V50.7137H155.05C156.132 50.7137 156.594 50.2375 156.594 49.5594C156.594 48.8813 156.132 48.3907 155.05 48.3907H152.886Z" fill="black"/>
<path d="M162.516 58.3895H160.813L161.794 56.0521L159.154 49.6604H160.972L162.703 54.0033H162.761L164.478 49.6604H166.166L162.516 58.3895Z" fill="black"/>
<path d="M169.107 52.7913L170.767 52.7192C170.839 54.1332 171.863 54.768 173.133 54.768C174.258 54.768 174.98 54.3207 174.98 53.556C174.98 52.8635 174.431 52.6038 173.479 52.4162L171.748 52.0988C170.334 51.8391 169.353 51.0599 169.353 49.5594C169.353 47.8569 170.695 46.7603 172.815 46.7603C175.196 46.7603 176.538 47.9867 176.567 50.0067L174.908 50.0644C174.85 48.8236 174.042 48.1743 172.801 48.1743C171.733 48.1743 171.127 48.6504 171.127 49.4296C171.127 50.0933 171.604 50.3241 172.426 50.4828L174.1 50.7858C175.889 51.1177 176.726 51.9689 176.726 53.4406C176.726 55.2297 175.182 56.1964 173.133 56.1964C170.796 56.1964 169.107 54.9844 169.107 52.7913Z" fill="black"/>
<path d="M179.57 52.7192V52.9645C179.57 54.1332 180.263 54.8401 181.244 54.8401C182.341 54.8401 182.903 54.0466 182.903 52.849C182.903 51.6371 182.341 50.8435 181.244 50.8435C180.263 50.8435 179.57 51.5649 179.57 52.7192ZM179.585 54.8113V58.3895H177.853V49.6604H179.585V50.8868C179.873 50.1077 180.638 49.4873 181.778 49.4873C183.654 49.4873 184.649 50.9734 184.649 52.849C184.649 54.7247 183.654 56.1964 181.778 56.1964C180.638 56.1964 179.873 55.576 179.585 54.8113Z" fill="black"/>
<path d="M187.157 52.849C187.157 54.0466 187.705 54.8834 188.758 54.8834C189.826 54.8834 190.374 54.0466 190.374 52.849C190.374 51.6371 189.826 50.8002 188.758 50.8002C187.705 50.8002 187.157 51.6371 187.157 52.849ZM192.12 52.849C192.12 54.8257 190.735 56.1964 188.758 56.1964C186.796 56.1964 185.411 54.8257 185.411 52.849C185.411 50.8724 186.796 49.4873 188.758 49.4873C190.735 49.4873 192.12 50.8724 192.12 52.849Z" fill="black"/>
<path d="M193.428 54.4073V50.8724H192.519V49.848L192.952 49.7758C193.572 49.6748 193.745 49.3574 193.89 48.7659L194.092 47.9002H195.145V49.6604H196.876V50.8724H195.145V54.0177C195.145 54.566 195.39 54.8113 195.91 54.8113C196.256 54.8113 196.617 54.6814 196.992 54.5083V55.6481C196.53 55.9944 196.011 56.1964 195.232 56.1964C194.25 56.1964 193.428 55.7636 193.428 54.4073Z" fill="black"/>
<path d="M199.835 54.5804H201.35C203.269 54.5804 204.351 53.4262 204.351 51.4639C204.351 49.5305 203.269 48.3763 201.35 48.3763H199.835V54.5804ZM198.032 56.0233V46.9335H201.466C204.395 46.9335 206.213 48.636 206.213 51.4784C206.213 54.3207 204.395 56.0233 201.466 56.0233H198.032Z" fill="black"/>
<path d="M211.745 49.747L211.615 51.3629C211.283 51.1754 210.994 51.0888 210.576 51.0888C209.681 51.0888 209.075 51.7236 209.075 52.8779V56.0233H207.344V49.6604H209.075V50.8724C209.306 50.151 209.97 49.4873 210.85 49.4873C211.24 49.4873 211.557 49.5883 211.745 49.747Z" fill="black"/>
<path d="M216.268 53.2675V53.1088L215.071 53.3685C214.32 53.5272 213.786 53.657 213.786 54.2919C213.786 54.7247 214.118 54.9844 214.667 54.9844C215.576 54.9844 216.268 54.2919 216.268 53.2675ZM217.956 51.9401V54.4794C217.956 54.8113 218.129 54.97 218.403 54.97C218.577 54.97 218.75 54.9267 218.937 54.8401V55.7636C218.663 55.98 218.317 56.1675 217.74 56.1675C217.018 56.1675 216.557 55.7491 216.398 55.0566C216.037 55.7924 215.172 56.182 214.234 56.182C212.906 56.182 212.098 55.5183 212.098 54.4217C212.098 53.2098 213.079 52.7048 214.522 52.4162L216.268 52.0699V51.9256C216.268 51.2187 215.893 50.7858 215.157 50.7858C214.436 50.7858 214.046 51.2187 213.902 51.8391L212.329 51.6948C212.546 50.3962 213.541 49.4873 215.229 49.4873C216.874 49.4873 217.956 50.2664 217.956 51.9401Z" fill="black"/>
<path d="M220.003 50.8724H219.065V49.6604H220.003V49.1266C220.003 47.6404 220.897 46.7603 222.326 46.7603C223.48 46.7603 224.187 47.3086 224.461 48.3186L223.35 48.6793C223.206 48.2753 222.932 48.0012 222.484 48.0012C221.95 48.0012 221.72 48.4051 221.72 48.9967V49.6604H223.422V50.8724H221.72V56.0233H220.003V50.8724Z" fill="black"/>
<path d="M224.412 54.4073V50.8724H223.503V49.848L223.936 49.7758C224.556 49.6748 224.73 49.3574 224.874 48.7659L225.076 47.9002H226.129V49.6604H227.861V50.8724H226.129V54.0177C226.129 54.566 226.374 54.8113 226.894 54.8113C227.24 54.8113 227.601 54.6814 227.976 54.5083V55.6481C227.514 55.9944 226.995 56.1964 226.216 56.1964C225.235 56.1964 224.412 55.7636 224.412 54.4073Z" fill="black"/>
<defs>
<linearGradient id="paint0_linear_4869_82317" x1="24.011" y1="5.60158" x2="46.7338" y2="29.0312" gradientUnits="userSpaceOnUse">
<stop stop-color="#3259E6"/>
<stop offset="1" stop-color="#501C8C"/>
</linearGradient>
</defs>
</svg>
